<svg width="230" height="155" viewBox="0 0 230 155" fill="none" xmlns="http://www.w3.org/2000/svg">
<path d="M45.2465 84.0058C39.2431 77.9406 35.5527 69.5945 35.5527 60.4189C35.5527 41.8604 50.6522 26.801 69.2601 26.801C87.868 26.801 102.993 41.8344 102.993 60.393L77.0307 40.694L45.2465 84.0058Z" fill="#FDC858"/>
<path fill-rule="evenodd" clip-rule="evenodd" d="M69.2856 16.796C69.8598 16.796 70.3252 17.2602 70.3252 17.8328V21.4615C70.3252 22.0341 69.8598 22.4983 69.2856 22.4983C68.7115 22.4983 68.2461 22.0341 68.2461 21.4615V17.8328C68.2461 17.2602 68.7115 16.796 69.2856 16.796Z" fill="#007549"/>
<path fill-rule="evenodd" clip-rule="evenodd" d="M69.2856 10.0569C69.8598 10.0569 70.3252 10.521 70.3252 11.0936V14.8779C70.3252 15.4505 69.8598 15.9147 69.2856 15.9147C68.7115 15.9147 68.2461 15.4505 68.2461 14.8779V11.0936C68.2461 10.521 68.7115 10.0569 69.2856 10.0569Z" fill="#007549"/>
<path fill-rule="evenodd" clip-rule="evenodd" d="M69.2856 1.73662C69.8598 1.73662 70.3252 2.2008 70.3252 2.77341V7.72408C70.3252 8.29668 69.8598 8.76087 69.2856 8.76087C68.7115 8.76087 68.2461 8.29668 68.2461 7.72408V2.77341C68.2461 2.2008 68.7115 1.73662 69.2856 1.73662Z" fill="#007549"/>
<path fill-rule="evenodd" clip-rule="evenodd" d="M61.6666 17.4611C62.2314 17.3583 62.7728 17.7316 62.8759 18.2949L63.5256 21.8459C63.6286 22.4092 63.2543 22.9492 62.6895 23.052C62.1247 23.1548 61.5833 22.7815 61.4803 22.2182L60.8305 18.6672C60.7275 18.1039 61.1018 17.5639 61.6666 17.4611Z" fill="#007549"/>
<path fill-rule="evenodd" clip-rule="evenodd" d="M60.4991 10.825C61.0641 10.7233 61.6048 11.0976 61.7068 11.6611L62.3825 15.3935C62.4845 15.957 62.1092 16.4963 61.5442 16.5981C60.9792 16.6998 60.4385 16.3255 60.3365 15.762L59.6608 12.0295C59.5588 11.466 59.9341 10.9268 60.4991 10.825Z" fill="#007549"/>
<path fill-rule="evenodd" clip-rule="evenodd" d="M59.0432 2.63471C59.6082 2.53281 60.149 2.90698 60.2512 3.47044L61.1348 8.34335C61.2369 8.90681 60.8618 9.44619 60.2968 9.5481C59.7319 9.65 59.191 9.27583 59.0889 8.71237L58.2052 3.83946C58.1031 3.276 58.4782 2.73661 59.0432 2.63471Z" fill="#007549"/>
<path fill-rule="evenodd" clip-rule="evenodd" d="M54.3228 19.4253C54.8619 19.2283 55.459 19.5045 55.6565 20.0421L56.904 23.4376C57.1015 23.9753 56.8246 24.5708 56.2856 24.7678C55.7465 24.9648 55.1494 24.6887 54.9518 24.151L53.7044 20.7555C53.5068 20.2179 53.7837 19.6223 54.3228 19.4253Z" fill="#007549"/>
<path fill-rule="evenodd" clip-rule="evenodd" d="M52.0111 13.1007C52.5504 12.9044 53.1472 13.1813 53.344 13.7192L54.6434 17.2702C54.8403 17.8081 54.5626 18.4033 54.0233 18.5996C53.484 18.7959 52.8872 18.519 52.6904 17.9811L51.3909 14.4301C51.1941 13.8922 51.4717 13.297 52.0111 13.1007Z" fill="#007549"/>
<path fill-rule="evenodd" clip-rule="evenodd" d="M49.1507 5.27349C49.6897 5.07637 50.2869 5.35239 50.4846 5.88999L52.1998 10.5555C52.3975 11.0931 52.1207 11.6888 51.5817 11.8859C51.0427 12.083 50.4455 11.807 50.2478 11.2694L48.5326 6.60383C48.3349 6.06623 48.6117 5.47061 49.1507 5.27349Z" fill="#007549"/>
<path fill-rule="evenodd" clip-rule="evenodd" d="M47.4025 22.6377C47.8994 22.3509 48.5353 22.5203 48.8228 23.0159L50.6421 26.1522C50.9295 26.6479 50.7597 27.2821 50.2628 27.5688C49.7658 27.8556 49.1299 27.6862 48.8424 27.1906L47.0232 24.0543C46.7357 23.5587 46.9055 22.9244 47.4025 22.6377Z" fill="#007549"/>
<path fill-rule="evenodd" clip-rule="evenodd" d="M44.0524 16.8043C44.5502 16.519 45.1856 16.6901 45.4718 17.1865L47.3689 20.4783C47.655 20.9747 47.4835 21.6085 46.9857 21.8939C46.488 22.1792 45.8525 22.0081 45.5664 21.5117L43.6692 18.2199C43.3831 17.7234 43.5547 17.0897 44.0524 16.8043Z" fill="#007549"/>
<path fill-rule="evenodd" clip-rule="evenodd" d="M39.866 9.59998C40.363 9.31332 40.9989 9.48276 41.2863 9.97844L43.7812 14.2811C44.0686 14.7768 43.8987 15.411 43.4017 15.6977C42.9047 15.9843 42.2688 15.8149 41.9814 15.3192L39.4865 11.0165C39.1991 10.5208 39.369 9.88664 39.866 9.59998Z" fill="#007549"/>
<path fill-rule="evenodd" clip-rule="evenodd" d="M41.1727 26.9925C41.612 26.6239 42.2678 26.6804 42.6374 27.1186L44.9763 29.892C45.3459 30.3302 45.2893 30.9842 44.85 31.3528C44.4106 31.7214 43.7548 31.6649 43.3853 31.2267L41.0463 28.4533C40.6767 28.0151 40.7333 27.3611 41.1727 26.9925Z" fill="#007549"/>
<path fill-rule="evenodd" clip-rule="evenodd" d="M36.8332 21.8338C37.273 21.4657 37.9287 21.5228 38.2978 21.9614L40.7407 24.8644C41.1098 25.303 41.0525 25.957 40.6127 26.3251C40.173 26.6932 39.5172 26.6361 39.1482 26.1975L36.7052 23.2944C36.3361 22.8558 36.3934 22.2019 36.8332 21.8338Z" fill="#007549"/>
<path fill-rule="evenodd" clip-rule="evenodd" d="M31.4518 15.4592C31.8907 15.09 32.5465 15.1455 32.9167 15.5832L36.1393 19.3934C36.5095 19.8311 36.4538 20.4852 36.015 20.8544C35.5761 21.2236 34.9203 21.168 34.5501 20.7304L31.3275 16.9202C30.9573 16.4825 31.013 15.8284 31.4518 15.4592Z" fill="#007549"/>
<path fill-rule="evenodd" clip-rule="evenodd" d="M35.7931 32.3849C36.1602 31.9447 36.8157 31.8847 37.2571 32.2508L40.0379 34.5577C40.4793 34.9239 40.5395 35.5776 40.1723 36.0178C39.8052 36.458 39.1497 36.518 38.7083 36.1519L35.9275 33.845C35.4861 33.4789 35.426 32.8251 35.7931 32.3849Z" fill="#007549"/>
<path fill-rule="evenodd" clip-rule="evenodd" d="M30.6271 28.0493C30.9982 27.6123 31.6541 27.5581 32.0922 27.9281L34.977 30.3646C35.4151 30.7346 35.4695 31.3888 35.0985 31.8258C34.7275 32.2628 34.0715 32.317 33.6334 31.947L30.7486 29.5105C30.3105 29.1405 30.2561 28.4863 30.6271 28.0493Z" fill="#007549"/>
<path fill-rule="evenodd" clip-rule="evenodd" d="M24.2037 22.6886C24.5722 22.2495 25.2278 22.1913 25.6681 22.5588L29.4884 25.7469C29.9288 26.1144 29.987 26.7682 29.6186 27.2074C29.2502 27.6465 28.5946 27.7047 28.1542 27.3372L24.3339 24.1491C23.8936 23.7816 23.8353 23.1278 24.2037 22.6886Z" fill="#007549"/>
<path fill-rule="evenodd" clip-rule="evenodd" d="M31.4041 38.5934C31.6916 38.0978 32.3275 37.9284 32.8244 38.2152L35.9691 40.0296C36.466 40.3163 36.6358 40.9505 36.3483 41.4462C36.0608 41.9418 35.4249 42.1112 34.928 41.8244L31.7833 40.01C31.2864 39.7233 31.1166 39.0891 31.4041 38.5934Z" fill="#007549"/>
<path fill-rule="evenodd" clip-rule="evenodd" d="M25.5554 35.2264C25.8416 34.7299 26.477 34.5588 26.9748 34.8442L30.2753 36.7363C30.7731 37.0217 30.9447 37.6554 30.6585 38.1519C30.3724 38.6483 29.737 38.8194 29.2392 38.5341L25.9387 36.6419C25.4409 36.3566 25.2693 35.7228 25.5554 35.2264Z" fill="#007549"/>
<path fill-rule="evenodd" clip-rule="evenodd" d="M18.3317 31.0512C18.6191 30.5555 19.255 30.3861 19.752 30.6727L24.0662 33.161C24.5632 33.4477 24.7331 34.0819 24.4456 34.5776C24.1582 35.0732 23.5223 35.2427 23.0253 34.956L18.7112 32.4677C18.2142 32.1811 18.0443 31.5469 18.3317 31.0512Z" fill="#007549"/>
<path fill-rule="evenodd" clip-rule="evenodd" d="M28.1801 45.5042C28.3727 44.9648 28.9673 44.6832 29.5082 44.8753L32.9387 46.0935C33.4795 46.2856 33.7619 46.8786 33.5693 47.418C33.3767 47.9574 32.7821 48.239 32.2413 48.047L28.8108 46.8287C28.2699 46.6367 27.9876 46.0437 28.1801 45.5042Z" fill="#007549"/>
<path fill-rule="evenodd" clip-rule="evenodd" d="M21.8408 43.192C22.0364 42.6536 22.6325 42.3753 23.1723 42.5704L26.7587 43.8664C27.2985 44.0614 27.5775 44.656 27.382 45.1943C27.1864 45.7327 26.5903 46.011 26.0505 45.8159L22.464 44.5199C21.9242 44.3249 21.6452 43.7303 21.8408 43.192Z" fill="#007549"/>
<path fill-rule="evenodd" clip-rule="evenodd" d="M13.9918 40.3418C14.1868 39.8033 14.7826 39.5243 15.3226 39.7188L20.0006 41.4036C20.5406 41.5981 20.8202 42.1923 20.6252 42.7309C20.4302 43.2695 19.8344 43.5484 19.2944 43.3539L14.6164 41.6691C14.0764 41.4747 13.7968 40.8804 13.9918 40.3418Z" fill="#007549"/>
<path fill-rule="evenodd" clip-rule="evenodd" d="M26.2118 52.8282C26.3102 52.2641 26.8485 51.8863 27.4141 51.9844L31.0006 52.6065C31.5662 52.7046 31.945 53.2414 31.8466 53.8056C31.7483 54.3697 31.21 54.7475 30.6443 54.6494L27.0579 54.0273C26.4923 53.9292 26.1135 53.3923 26.2118 52.8282Z" fill="#007549"/>
<path fill-rule="evenodd" clip-rule="evenodd" d="M19.585 51.6609C19.6839 51.0969 20.2225 50.7195 20.7881 50.8182L24.5045 51.4661C25.07 51.5648 25.4483 52.1019 25.3495 52.666C25.2506 53.23 24.712 53.6074 24.1464 53.5087L20.43 52.8608C19.8645 52.7621 19.4862 52.225 19.585 51.6609Z" fill="#007549"/>
<path fill-rule="evenodd" clip-rule="evenodd" d="M11.3467 50.2096C11.4455 49.6456 11.984 49.2681 12.5496 49.3666L17.4614 50.222C18.027 50.3205 18.4054 50.8576 18.3067 51.4216C18.2079 51.9857 17.6694 52.3631 17.1038 52.2647L12.192 51.4093C11.6264 51.3108 11.248 50.7737 11.3467 50.2096Z" fill="#007549"/>
<path fill-rule="evenodd" clip-rule="evenodd" d="M25.5469 60.393C25.5469 59.8204 26.0123 59.3562 26.5864 59.3562H30.2248C30.799 59.3562 31.2644 59.8204 31.2644 60.393C31.2644 60.9656 30.799 61.4298 30.2248 61.4298H26.5864C26.0123 61.4298 25.5469 60.9656 25.5469 60.393Z" fill="#007549"/>
<path fill-rule="evenodd" clip-rule="evenodd" d="M18.8159 60.393C18.8159 59.8204 19.2813 59.3562 19.8555 59.3562H23.6498C24.2239 59.3562 24.6894 59.8204 24.6894 60.393C24.6894 60.9656 24.2239 61.4298 23.6498 61.4298H19.8555C19.2813 61.4298 18.8159 60.9656 18.8159 60.393Z" fill="#007549"/>
<path fill-rule="evenodd" clip-rule="evenodd" d="M10.4473 60.393C10.4473 59.8204 10.9127 59.3562 11.4868 59.3562H16.4766C17.0508 59.3562 17.5162 59.8204 17.5162 60.393C17.5162 60.9656 17.0508 61.4298 16.4766 61.4298H11.4868C10.9127 61.4298 10.4473 60.9656 10.4473 60.393Z" fill="#007549"/>
<path fill-rule="evenodd" clip-rule="evenodd" d="M31.8466 66.9806C31.945 67.5448 31.5662 68.0816 31.0006 68.1797L27.4141 68.8018C26.8485 68.8999 26.3102 68.5221 26.2118 67.958C26.1135 67.3939 26.4923 66.857 27.0579 66.7589L30.6443 66.1368C31.21 66.0387 31.7483 66.4165 31.8466 66.9806Z" fill="#007549"/>
<path fill-rule="evenodd" clip-rule="evenodd" d="M25.3495 68.1202C25.4483 68.6843 25.07 69.2214 24.5045 69.3201L20.7881 69.968C20.2225 70.0667 19.6839 69.6893 19.585 69.1253C19.4862 68.5612 19.8645 68.0241 20.43 67.9254L24.1464 67.2775C24.712 67.1788 25.2506 67.5562 25.3495 68.1202Z" fill="#007549"/>
<path fill-rule="evenodd" clip-rule="evenodd" d="M18.3067 69.3646C18.4054 69.9287 18.027 70.4658 17.4614 70.5642L12.5496 71.4196C11.984 71.5181 11.4455 71.1407 11.3467 70.5766C11.248 70.0125 11.6264 69.4754 12.192 69.3769L17.1038 68.5216C17.6694 68.4231 18.2079 68.8005 18.3067 69.3646Z" fill="#007549"/>
<path fill-rule="evenodd" clip-rule="evenodd" d="M33.5669 73.3614C33.7631 73.8995 33.4848 74.4944 32.9452 74.6901L29.5147 75.9342C28.9752 76.1299 28.3787 75.8523 28.1825 75.3142C27.9863 74.7761 28.2646 74.1812 28.8042 73.9855L32.2347 72.7414C32.7743 72.5457 33.3707 72.8233 33.5669 73.3614Z" fill="#007549"/>
<path fill-rule="evenodd" clip-rule="evenodd" d="M27.382 75.6178C27.5775 76.1562 27.2985 76.7507 26.7587 76.9458L23.1723 78.2418C22.6325 78.4368 22.0364 78.1585 21.8408 77.6202C21.6452 77.0818 21.9242 76.4873 22.464 76.2922L26.0505 74.9962C26.5903 74.8012 27.1864 75.0795 27.382 75.6178Z" fill="#007549"/>
<path fill-rule="evenodd" clip-rule="evenodd" d="M20.6235 78.0503C20.8211 78.5879 20.5444 79.1835 20.0054 79.3806L15.3274 81.0913C14.7884 81.2884 14.1912 81.0124 13.9935 80.4748C13.7959 79.9372 14.0726 79.3416 14.6116 79.1445L19.2896 77.4338C19.8287 77.2367 20.4258 77.5127 20.6235 78.0503Z" fill="#007549"/>
<path fill-rule="evenodd" clip-rule="evenodd" d="M36.3483 79.3398C36.6358 79.8354 36.466 80.4697 35.9691 80.7564L32.8244 82.5708C32.3275 82.8575 31.6916 82.6881 31.4041 82.1925C31.1166 81.6969 31.2864 81.0626 31.7833 80.7759L34.928 78.9615C35.4249 78.6748 36.0608 78.8441 36.3483 79.3398Z" fill="#007549"/>
<path fill-rule="evenodd" clip-rule="evenodd" d="M30.6585 82.6341C30.9447 83.1305 30.7731 83.7643 30.2753 84.0496L26.9748 85.9418C26.477 86.2271 25.8416 86.056 25.5554 85.5596C25.2693 85.0632 25.4409 84.4294 25.9387 84.144L29.2392 82.2519C29.737 81.9665 30.3724 82.1377 30.6585 82.6341Z" fill="#007549"/>
<path fill-rule="evenodd" clip-rule="evenodd" d="M24.4456 86.2086C24.7331 86.7043 24.5632 87.3385 24.0662 87.6252L19.752 90.1135C19.255 90.4001 18.6191 90.2307 18.3317 89.735C18.0443 89.2393 18.2142 88.6051 18.7112 88.3185L23.0253 85.8302C23.5223 85.5435 24.1582 85.713 24.4456 86.2086Z" fill="#007549"/>
<path fill-rule="evenodd" clip-rule="evenodd" d="M110.366 45.5042C110.558 46.0437 110.276 46.6366 109.735 46.8287L106.305 48.047C105.764 48.239 105.169 47.9574 104.977 47.418C104.784 46.8786 105.066 46.2856 105.607 46.0935L109.038 44.8753C109.579 44.6832 110.173 44.9648 110.366 45.5042Z" fill="#007549"/>
<path fill-rule="evenodd" clip-rule="evenodd" d="M116.705 43.192C116.901 43.7303 116.622 44.3249 116.082 44.5199L112.496 45.8159C111.956 46.011 111.36 45.7327 111.164 45.1943C110.968 44.656 111.247 44.0614 111.787 43.8664L115.374 42.5704C115.913 42.3753 116.51 42.6536 116.705 43.192Z" fill="#007549"/>
<path fill-rule="evenodd" clip-rule="evenodd" d="M107.142 38.5934C107.429 39.0891 107.259 39.7233 106.763 40.01L103.618 41.8244C103.121 42.1112 102.485 41.9418 102.198 41.4462C101.91 40.9505 102.08 40.3163 102.577 40.0296L105.721 38.2152C106.218 37.9284 106.854 38.0978 107.142 38.5934Z" fill="#007549"/>
<path fill-rule="evenodd" clip-rule="evenodd" d="M112.991 35.2264C113.277 35.7228 113.105 36.3566 112.607 36.6419L109.307 38.5341C108.809 38.8194 108.174 38.6483 107.887 38.1519C107.601 37.6554 107.773 37.0217 108.271 36.7363L111.571 34.8442C112.069 34.5588 112.704 34.7299 112.991 35.2264Z" fill="#007549"/>
<path fill-rule="evenodd" clip-rule="evenodd" d="M120.214 31.0512C120.502 31.5469 120.332 32.1811 119.835 32.4677L115.521 34.956C115.024 35.2427 114.388 35.0732 114.1 34.5776C113.813 34.0819 113.983 33.4477 114.48 33.161L118.794 30.6727C119.291 30.3861 119.927 30.5555 120.214 31.0512Z" fill="#007549"/>
<path fill-rule="evenodd" clip-rule="evenodd" d="M102.75 32.3812C103.119 32.8198 103.062 33.4737 102.622 33.8419L99.8672 36.1488C99.4275 36.517 98.7718 36.46 98.4026 36.0215C98.0334 35.5829 98.0906 34.929 98.5303 34.5608L101.285 32.2539C101.725 31.8857 102.381 31.9427 102.75 32.3812Z" fill="#007549"/>
<path fill-rule="evenodd" clip-rule="evenodd" d="M107.919 28.0493C108.29 28.4863 108.235 29.1405 107.797 29.5105L104.913 31.947C104.474 32.317 103.818 32.2628 103.447 31.8258C103.076 31.3888 103.131 30.7346 103.569 30.3646L106.454 27.9281C106.892 27.5581 107.548 27.6123 107.919 28.0493Z" fill="#007549"/>
<path fill-rule="evenodd" clip-rule="evenodd" d="M114.342 22.6886C114.71 23.1278 114.652 23.7816 114.212 24.1491L110.391 27.3372C109.951 27.7047 109.295 27.6465 108.927 27.2074C108.558 26.7682 108.617 26.1144 109.057 25.7469L112.877 22.5588C113.318 22.1913 113.973 22.2495 114.342 22.6886Z" fill="#007549"/>
<path fill-rule="evenodd" clip-rule="evenodd" d="M97.3729 26.9925C97.8123 27.3611 97.8689 28.0151 97.4993 28.4533L95.1603 31.2267C94.7908 31.6649 94.135 31.7214 93.6956 31.3528C93.2562 30.9842 93.1997 30.3302 93.5692 29.892L95.9082 27.1186C96.2778 26.6804 96.9335 26.6239 97.3729 26.9925Z" fill="#007549"/>
<path fill-rule="evenodd" clip-rule="evenodd" d="M101.712 21.8338C102.152 22.2019 102.209 22.8558 101.84 23.2944L99.3974 26.1975C99.0283 26.6361 98.3726 26.6932 97.9328 26.3251C97.493 25.957 97.4357 25.303 97.8048 24.8644L100.248 21.9614C100.617 21.5228 101.273 21.4657 101.712 21.8338Z" fill="#007549"/>
<path fill-rule="evenodd" clip-rule="evenodd" d="M107.091 15.4565C107.531 15.824 107.589 16.4779 107.221 16.917L104.024 20.7272C103.656 21.1664 103 21.2245 102.56 20.857C102.12 20.4896 102.061 19.8357 102.43 19.3965L105.626 15.5863C105.995 15.1472 106.65 15.0891 107.091 15.4565Z" fill="#007549"/>
<path fill-rule="evenodd" clip-rule="evenodd" d="M91.1432 22.6377C91.6401 22.9244 91.8099 23.5587 91.5224 24.0543L89.7032 27.1906C89.4157 27.6862 88.7798 27.8556 88.2828 27.5688C87.7859 27.2821 87.6161 26.6479 87.9036 26.1522L89.7228 23.0159C90.0103 22.5203 90.6462 22.3509 91.1432 22.6377Z" fill="#007549"/>
<path fill-rule="evenodd" clip-rule="evenodd" d="M94.493 16.8043C94.9908 17.0897 95.1624 17.7234 94.8763 18.2199L92.9791 21.5117C92.693 22.0081 92.0575 22.1792 91.5598 21.8939C91.062 21.6085 90.8904 20.9747 91.1765 20.4783L93.0737 17.1865C93.3598 16.6901 93.9953 16.519 94.493 16.8043Z" fill="#007549"/>
<path fill-rule="evenodd" clip-rule="evenodd" d="M98.6796 9.59998C99.1766 9.88664 99.3465 10.5208 99.059 11.0165L96.5641 15.3192C96.2767 15.8149 95.6408 15.9843 95.1438 15.6977C94.6468 15.411 94.4769 14.7768 94.7643 14.2811L97.2592 9.97844C97.5467 9.48276 98.1826 9.31332 98.6796 9.59998Z" fill="#007549"/>
<path fill-rule="evenodd" clip-rule="evenodd" d="M84.2231 19.4253C84.7621 19.6223 85.039 20.2179 84.8415 20.7555L83.594 24.151C83.3965 24.6887 82.7994 24.9648 82.2603 24.7678C81.7212 24.5708 81.4443 23.9753 81.6419 23.4376L82.8893 20.0421C83.0869 19.5045 83.684 19.2283 84.2231 19.4253Z" fill="#007549"/>
<path fill-rule="evenodd" clip-rule="evenodd" d="M86.535 13.1007C87.0744 13.297 87.352 13.8922 87.1552 14.4301L85.8557 17.9811C85.6589 18.519 85.0621 18.7959 84.5228 18.5996C83.9835 18.4033 83.7058 17.8081 83.9026 17.2702L85.2021 13.7192C85.3989 13.1813 85.9957 12.9044 86.535 13.1007Z" fill="#007549"/>
<path fill-rule="evenodd" clip-rule="evenodd" d="M89.3952 5.27349C89.9342 5.47061 90.211 6.06623 90.0133 6.60383L88.2981 11.2694C88.1004 11.807 87.5032 12.083 86.9642 11.8859C86.4252 11.6888 86.1484 11.0931 86.3461 10.5555L88.0613 5.88999C88.259 5.35239 88.8561 5.07637 89.3952 5.27349Z" fill="#007549"/>
<path fill-rule="evenodd" clip-rule="evenodd" d="M76.8795 17.4611C77.4443 17.5639 77.8186 18.1039 77.7155 18.6672L77.0658 22.2182C76.9627 22.7815 76.4213 23.1548 75.8565 23.052C75.2917 22.9492 74.9174 22.4092 75.0205 21.8459L75.6702 18.2949C75.7733 17.7316 76.3147 17.3583 76.8795 17.4611Z" fill="#007549"/>
<path fill-rule="evenodd" clip-rule="evenodd" d="M78.0466 10.825C78.6116 10.9268 78.9869 11.466 78.8849 12.0295L78.2092 15.762C78.1072 16.3255 77.5665 16.6998 77.0015 16.5981C76.4365 16.4963 76.0612 15.957 76.1632 15.3935L76.8389 11.6611C76.9409 11.0976 77.4816 10.7233 78.0466 10.825Z" fill="#007549"/>
<path fill-rule="evenodd" clip-rule="evenodd" d="M79.5024 2.63471C80.0674 2.73661 80.4425 3.276 80.3403 3.83946L79.4567 8.71237C79.3545 9.27583 78.8137 9.65 78.2488 9.5481C77.6838 9.44619 77.3086 8.90681 77.4108 8.34335L78.2944 3.47044C78.3966 2.90697 78.9374 2.53281 79.5024 2.63471Z" fill="#007549"/>
<path fill-rule="evenodd" clip-rule="evenodd" d="M2.36523 153.885C2.36523 153.313 2.83066 152.849 3.40478 152.849H39.633C40.2071 152.849 40.6726 153.313 40.6726 153.885C40.6726 154.458 40.2071 154.922 39.633 154.922H3.40478C2.83066 154.922 2.36523 154.458 2.36523 153.885Z" fill="#355B3E"/>
<path fill-rule="evenodd" clip-rule="evenodd" d="M43.1411 153.885C43.1411 153.313 43.6065 152.849 44.1807 152.849H96.0281C96.6022 152.849 97.0677 153.313 97.0677 153.885C97.0677 154.458 96.6022 154.922 96.0281 154.922H44.1807C43.6065 154.922 43.1411 154.458 43.1411 153.885Z" fill="#355B3E"/>
<path fill-rule="evenodd" clip-rule="evenodd" d="M184.104 153.885C184.104 153.313 184.569 152.849 185.144 152.849H189.848C190.422 152.849 190.887 153.313 190.887 153.885C190.887 154.458 190.422 154.922 189.848 154.922H185.144C184.569 154.922 184.104 154.458 184.104 153.885Z" fill="#355B3E"/>
<path fill-rule="evenodd" clip-rule="evenodd" d="M193.33 153.885C193.33 153.313 193.795 152.849 194.37 152.849H216.876C217.45 152.849 217.915 153.313 217.915 153.885C217.915 154.458 217.45 154.922 216.876 154.922H194.37C193.795 154.922 193.33 154.458 193.33 153.885Z" fill="#355B3E"/>
<path fill-rule="evenodd" clip-rule="evenodd" d="M219.734 153.885C219.734 153.313 220.2 152.849 220.774 152.849H222.463C223.037 152.849 223.503 153.313 223.503 153.885C223.503 154.458 223.037 154.922 222.463 154.922H220.774C220.2 154.922 219.734 154.458 219.734 153.885Z" fill="#355B3E"/>
<path fill-rule="evenodd" clip-rule="evenodd" d="M77.0155 39.771C77.2922 39.7321 77.573 39.8059 77.7945 39.9758L106.278 61.8262C106.733 62.1753 106.818 62.8262 106.468 63.2801C106.118 63.734 105.466 63.8189 105.011 63.4698L77.3682 42.2648L27.0338 110.411C26.6933 110.872 26.0425 110.97 25.5803 110.631C25.118 110.291 25.0194 109.642 25.3599 109.181L76.3237 40.1827C76.4894 39.9583 76.7388 39.81 77.0155 39.771Z" fill="#007549"/>
<path fill-rule="evenodd" clip-rule="evenodd" d="M128.931 29.9424C129.224 29.9133 129.515 30.0093 129.733 30.2066L191.534 86.1932C191.959 86.5782 191.99 87.2339 191.604 87.6578C191.218 88.0817 190.561 88.1132 190.136 87.7282L129.188 32.514L93.4606 80.8883C93.1201 81.3493 92.4693 81.4478 92.0071 81.1082C91.5448 80.7686 91.4461 80.1196 91.7866 79.6585L128.197 30.3592C128.371 30.1229 128.638 29.9715 128.931 29.9424Z" fill="#007549"/>
<path fill-rule="evenodd" clip-rule="evenodd" d="M101.896 58.4605C102.377 58.7721 102.515 59.4141 102.202 59.8945L99.0835 64.6896C98.8133 65.1051 98.2862 65.272 97.8252 65.0881L90.6875 62.2405L87.7752 66.6644C87.5172 67.0562 87.0277 67.2267 86.5812 67.0801L80.9269 65.2239L78.076 67.8657C77.7852 68.1352 77.3659 68.216 76.9954 68.074L69.3958 65.1607L63.6138 67.4479C63.1842 67.6178 62.6937 67.4845 62.41 67.1207L59.8631 63.8548C59.5106 63.4028 59.5922 62.7514 60.0454 62.3998C60.4986 62.0483 61.1517 62.1297 61.5042 62.5817L63.5723 65.2336L69.0066 63.0839C69.2492 62.9879 69.5192 62.9865 69.7628 63.0799L77.1359 65.9064L79.9614 63.2881C80.2387 63.0311 80.6343 62.9448 80.994 63.0629L86.4745 64.8621L89.4158 60.3942C89.6871 59.9821 90.2119 59.8175 90.6708 60.0006L97.8041 62.8463L100.458 58.7661C100.77 58.2857 101.414 58.1488 101.896 58.4605Z" fill="#007549"/>
<path fill-rule="evenodd" clip-rule="evenodd" d="M140.882 49.34C141.11 49.0047 141.512 48.8323 141.913 48.8986L151.944 50.5574C152.511 50.6511 152.894 51.185 152.8 51.7499C152.706 52.3147 152.171 52.6968 151.604 52.6031L142.23 51.0529L138.731 56.2051C138.416 56.6683 137.79 56.7991 137.316 56.5008L131.852 53.0654L124.2 57.1841C123.695 57.4558 123.065 57.2684 122.792 56.7654L120.284 52.1456L113.154 53.7829C112.595 53.9114 112.037 53.5632 111.908 53.0052C111.779 52.4472 112.128 51.8907 112.688 51.7622L120.588 49.9478C121.044 49.8433 121.513 50.0546 121.736 50.4645L124.126 54.8676L131.399 50.953C131.729 50.7753 132.13 50.7888 132.447 50.9883L137.574 54.2116L140.882 49.34Z" fill="#007549"/>
<path fill-rule="evenodd" clip-rule="evenodd" d="M150.111 27.5527C150.111 21.7443 154.812 17.0552 160.636 17.0552C164.561 17.0552 168.013 19.2223 169.809 22.4176C170.354 22.3014 170.92 22.2391 171.499 22.2391C174.58 22.2391 177.272 23.9936 178.579 26.5615C178.803 26.5317 179.034 26.5159 179.27 26.5159C182.157 26.5159 184.52 28.8722 184.52 31.7517C184.52 32.4731 184.357 33.1796 184.1 33.787C183.938 34.1714 183.56 34.4214 183.142 34.4214H146.134C145.793 34.4214 145.474 34.2544 145.279 33.9746C145.085 33.6948 145.041 33.3378 145.161 33.0193C146.008 30.777 147.835 29.048 150.142 28.3236C150.122 28.0698 150.111 27.8126 150.111 27.5527ZM160.636 19.1288C155.96 19.1288 152.19 22.8895 152.19 27.5527C152.19 28.0033 152.235 28.4675 152.308 28.9541C152.391 29.5068 152.02 30.0258 151.469 30.1274C149.989 30.4001 148.724 31.2083 147.874 32.3478H182.379C182.419 32.1508 182.44 31.9496 182.44 31.7517C182.44 30.0174 181.009 28.5895 179.27 28.5895C178.916 28.5895 178.585 28.6484 178.299 28.7436C177.766 28.9209 177.188 28.6432 176.994 28.1167C176.18 25.8994 174.017 24.3127 171.499 24.3127C170.835 24.3127 170.192 24.4231 169.593 24.6224C169.088 24.7904 168.537 24.5502 168.317 24.0661C166.999 21.1593 164.035 19.1288 160.636 19.1288Z" fill="#007549"/>
<path fill-rule="evenodd" clip-rule="evenodd" d="M189.198 45.5151C189.198 41.0027 192.86 37.3503 197.384 37.3503C201.623 37.3503 205.104 40.5553 205.528 44.67C205.636 44.6632 205.746 44.6597 205.857 44.6597C208.896 44.6597 211.392 47.1158 211.392 50.1806V50.3102C211.392 50.8828 210.927 51.347 210.353 51.347H186.729C186.155 51.347 185.689 50.8828 185.689 50.3102V50.2067C185.689 48.045 187.2 46.256 189.202 45.7893C189.199 45.6977 189.198 45.6063 189.198 45.5151ZM197.384 39.4239C194.008 39.4239 191.277 42.1479 191.277 45.5151C191.277 45.887 191.3 46.2032 191.361 46.504C191.422 46.8086 191.343 47.1245 191.145 47.3647C190.948 47.6049 190.653 47.7442 190.341 47.7442H190.237C189.211 47.7442 188.322 48.3737 187.952 49.2734H209.192C208.792 47.8055 207.443 46.7333 205.857 46.7333C205.506 46.7333 205.169 46.7913 204.841 46.8934C204.526 46.9918 204.182 46.9345 203.915 46.7392C203.649 46.5438 203.492 46.2337 203.492 45.9039V45.5151C203.492 42.1479 200.761 39.4239 197.384 39.4239Z" fill="#007549"/>
<path d="M72.4825 153.885C65.9074 153.885 60.5537 148.546 60.5537 141.988C60.5537 135.431 65.9074 130.091 72.4825 130.091C79.0577 130.091 84.4113 135.431 84.4113 141.988C84.4113 148.546 79.0577 153.885 72.4825 153.885Z" fill="#58745E"/>
<path fill-rule="evenodd" clip-rule="evenodd" d="M72.4825 131.128C66.4815 131.128 61.5933 136.003 61.5933 141.988C61.5933 147.973 66.4815 152.849 72.4825 152.849C78.4835 152.849 83.3718 147.973 83.3718 141.988C83.3718 136.003 78.4835 131.128 72.4825 131.128ZM59.5142 141.988C59.5142 134.858 65.3333 129.054 72.4825 129.054C79.6318 129.054 85.4509 134.858 85.4509 141.988C85.4509 149.119 79.6318 154.922 72.4825 154.922C65.3333 154.922 59.5142 149.119 59.5142 141.988Z" fill="#355B3E"/>
<path d="M72.4824 148.209C69.0519 148.209 66.2451 145.41 66.2451 141.988C66.2451 138.567 69.0519 135.768 72.4824 135.768C75.9129 135.768 78.7197 138.567 78.7197 141.988C78.7197 145.41 75.9129 148.209 72.4824 148.209Z" fill="#FDC858"/>
<path fill-rule="evenodd" clip-rule="evenodd" d="M72.4824 136.804C69.626 136.804 67.2847 139.139 67.2847 141.988C67.2847 144.837 69.626 147.172 72.4824 147.172C75.3388 147.172 77.6801 144.837 77.6801 141.988C77.6801 139.139 75.3388 136.804 72.4824 136.804ZM65.2056 141.988C65.2056 137.994 68.4778 134.731 72.4824 134.731C76.487 134.731 79.7592 137.994 79.7592 141.988C79.7592 145.982 76.487 149.246 72.4824 149.246C68.4778 149.246 65.2056 145.982 65.2056 141.988Z" fill="#355B3E"/>
<path d="M72.4823 144.036C71.3388 144.036 70.4292 143.103 70.4292 141.988C70.4292 140.848 71.3648 139.941 72.4823 139.941C73.6258 139.941 74.5354 140.874 74.5354 141.988C74.5354 143.103 73.6258 144.036 72.4823 144.036Z" fill="#FDC858"/>
<path fill-rule="evenodd" clip-rule="evenodd" d="M72.4823 140.977C71.9303 140.977 71.4687 141.429 71.4687 141.988C71.4687 142.539 71.9215 142.999 72.4823 142.999C73.0431 142.999 73.4959 142.539 73.4959 141.988C73.4959 141.438 73.0431 140.977 72.4823 140.977ZM69.3896 141.988C69.3896 140.267 70.7992 138.904 72.4823 138.904C74.2085 138.904 75.575 140.31 75.575 141.988C75.575 143.667 74.2085 145.073 72.4823 145.073C70.7561 145.073 69.3896 143.667 69.3896 141.988Z" fill="#355B3E"/>
<path d="M167.861 105.778L165.418 96.5251C164.456 92.8186 161.286 90.1229 157.465 89.7082C146.55 88.5418 133.322 87.8679 117.885 87.8679C100.212 87.8679 73.0541 89.2157 64.8937 90.1488C63.4123 90.3043 62.1389 91.2634 61.5411 92.6371L56.6293 104.094C54.3683 108.137 52.9909 112.595 52.601 117.209L52.4971 142.973L57.9807 143.077C57.9547 142.714 57.9287 142.351 57.9287 141.988C57.9287 133.979 64.4259 127.499 72.4564 127.499C80.4869 127.499 86.9841 133.979 86.9841 141.988C86.9841 142.455 86.9581 142.921 86.9061 143.362L125.11 143.829C125.032 143.232 124.98 142.61 124.98 141.988C124.98 133.979 131.477 127.499 139.507 127.499C147.538 127.499 154.035 133.979 154.035 141.988C154.035 142.714 153.983 143.414 153.879 144.114L169.29 144.269V117.416C169.368 113.503 168.848 109.589 167.861 105.778Z" fill="#3F7539"/>
<g opacity="0.36">
<path opacity="0.36" d="M55.4078 142.973L55.5118 117.209C55.9016 112.595 57.279 108.137 59.54 104.094L64.4519 92.6371C65.0496 91.2634 66.3231 90.3303 67.8044 90.1488C75.731 89.2416 101.538 87.9456 119.21 87.8679C118.768 87.8679 118.326 87.8679 117.885 87.8679C100.212 87.8679 73.0541 89.2157 64.8937 90.1488C63.4123 90.3043 62.1389 91.2634 61.5411 92.6371L56.6293 104.094C54.3683 108.137 52.9909 112.595 52.601 117.209L52.4971 142.973L57.9807 143.077C57.9807 143.051 57.9807 143.051 57.9807 143.025L55.4078 142.973Z" fill="#3F7539"/>
<path opacity="0.36" d="M156.842 144.114C156.946 143.414 156.998 142.714 156.998 141.988C156.998 133.979 150.501 127.499 142.47 127.499C141.976 127.499 141.508 127.525 141.015 127.577C148.369 128.303 154.087 134.472 154.087 141.988C154.087 142.714 154.035 143.414 153.931 144.114L169.342 144.269V144.243L156.842 144.114Z" fill="#3F7539"/>
<path opacity="0.36" d="M89.8431 143.336C89.8951 142.895 89.921 142.429 89.921 141.962C89.921 133.953 83.4239 127.473 75.3934 127.473C74.8996 127.473 74.4318 127.499 73.938 127.551C81.2928 128.277 87.0103 134.446 87.0103 141.962C87.0103 142.429 86.9843 142.895 86.9323 143.336L125.136 143.803V143.777L89.8431 143.336Z" fill="#3F7539"/>
</g>
<path opacity="0.36" d="M89.8949 141.003H124.616V137.556H89.2192C89.5831 138.671 89.791 139.811 89.8949 141.003Z" fill="#3F7539"/>
<g opacity="0.25">
<path opacity="0.25" d="M168.381 105.519L165.938 96.2659C164.976 92.5594 161.805 89.8637 157.985 89.449C147.07 88.2826 133.842 87.6087 118.404 87.6087C100.732 87.6087 73.5738 88.9565 65.4134 89.8896C64.1399 90.0451 62.9964 90.7709 62.3467 91.8595C62.3467 91.8595 62.3467 91.4189 62.3727 91.4189C70.5331 90.4858 97.6913 89.5786 115.364 89.5786C130.827 89.5786 144.029 90.2525 154.944 91.4189C158.765 91.8336 161.909 94.5293 162.897 98.2358L165.34 107.489C166.353 111.299 166.847 115.213 166.847 119.127V143.984L169.914 144.01V117.157C169.888 113.243 169.368 109.329 168.381 105.519Z" fill="#3F7539"/>
</g>
<path fill-rule="evenodd" clip-rule="evenodd" d="M64.7798 89.1183C72.9996 88.179 100.194 86.8311 117.885 86.8311C133.351 86.8311 146.617 87.5062 157.576 88.6773L157.578 88.6775C161.82 89.138 165.351 92.1332 166.424 96.2623C166.424 96.2633 166.424 96.2644 166.424 96.2654L168.866 105.514L168.867 105.519C169.875 109.406 170.409 113.411 170.33 117.427V144.269C170.33 144.546 170.219 144.811 170.022 145.006C169.824 145.201 169.557 145.309 169.28 145.306L153.868 145.15C153.568 145.147 153.284 145.015 153.088 144.787C152.893 144.559 152.807 144.258 152.851 143.962C152.947 143.313 152.995 142.664 152.995 141.988C152.995 134.552 146.964 128.536 139.507 128.536C132.051 128.536 126.019 134.552 126.019 141.988C126.019 142.554 126.067 143.13 126.14 143.695C126.179 143.993 126.087 144.293 125.886 144.517C125.686 144.742 125.398 144.869 125.097 144.865L86.8934 144.399C86.5988 144.395 86.3195 144.267 86.1251 144.046C85.9306 143.825 85.8393 143.533 85.8737 143.241C85.9206 142.844 85.9445 142.418 85.9445 141.988C85.9445 134.552 79.9128 128.536 72.4564 128.536C65 128.536 58.9683 134.552 58.9683 141.988C58.9683 142.308 58.9912 142.634 59.0176 143.003C59.0384 143.294 58.9357 143.579 58.7347 143.791C58.5337 144.002 58.2529 144.119 57.961 144.114L52.4774 144.01C51.9094 143.999 51.4552 143.536 51.4575 142.969L51.5615 117.205C51.5616 117.177 51.5628 117.15 51.5651 117.122C51.966 112.378 53.3784 107.794 55.6947 103.636L60.5853 92.2295L60.5875 92.2244C61.3283 90.5219 62.9143 89.316 64.7798 89.1183ZM117.885 88.9047C100.234 88.9047 73.1187 90.2519 65.0121 91.1789L65.0025 91.1799C63.9084 91.2948 62.9503 92.0053 62.4958 93.0474C62.4955 93.0482 62.4951 93.049 62.4948 93.0499L57.5851 104.501C57.5708 104.535 57.5548 104.567 57.5372 104.599C55.3539 108.503 54.0223 112.805 53.6404 117.255L53.5407 141.956L56.8892 142.019C56.8892 142.009 56.8892 141.999 56.8892 141.988C56.8892 133.406 63.8518 126.462 72.4564 126.462C81.061 126.462 88.0236 133.406 88.0236 141.988C88.0236 142.105 88.0221 142.222 88.0191 142.339L123.964 142.778C123.949 142.517 123.94 142.254 123.94 141.988C123.94 133.406 130.903 126.462 139.507 126.462C148.112 126.462 155.074 133.406 155.074 141.988C155.074 142.36 155.062 142.726 155.036 143.089L168.251 143.222V117.416C168.251 117.41 168.251 117.403 168.251 117.396C168.327 113.588 167.821 109.769 166.855 106.04C166.855 106.039 166.855 106.039 166.854 106.038L164.413 96.7891L164.412 96.7848C163.56 93.5027 160.751 91.1081 157.354 90.739C146.483 89.5774 133.293 88.9047 117.885 88.9047Z" fill="#355B3E"/>
<path d="M139.559 153.885C132.984 153.885 127.63 148.546 127.63 141.988C127.63 135.431 132.984 130.091 139.559 130.091C146.134 130.091 151.488 135.431 151.488 141.988C151.488 148.546 146.134 153.885 139.559 153.885Z" fill="#58745E"/>
<path fill-rule="evenodd" clip-rule="evenodd" d="M139.559 131.128C133.558 131.128 128.67 136.003 128.67 141.988C128.67 147.973 133.558 152.849 139.559 152.849C145.56 152.849 150.448 147.973 150.448 141.988C150.448 136.003 145.56 131.128 139.559 131.128ZM126.591 141.988C126.591 134.858 132.41 129.054 139.559 129.054C146.708 129.054 152.528 134.858 152.528 141.988C152.528 149.119 146.708 154.922 139.559 154.922C132.41 154.922 126.591 149.119 126.591 141.988Z" fill="#355B3E"/>
<path d="M139.56 148.209C136.129 148.209 133.322 145.41 133.322 141.988C133.322 138.567 136.129 135.768 139.56 135.768C142.99 135.768 145.797 138.567 145.797 141.988C145.797 145.41 142.99 148.209 139.56 148.209Z" fill="#FDC858"/>
<path fill-rule="evenodd" clip-rule="evenodd" d="M139.56 136.804C136.703 136.804 134.362 139.139 134.362 141.988C134.362 144.837 136.703 147.172 139.56 147.172C142.416 147.172 144.757 144.837 144.757 141.988C144.757 139.139 142.416 136.804 139.56 136.804ZM132.283 141.988C132.283 137.994 135.555 134.731 139.56 134.731C143.564 134.731 146.836 137.994 146.836 141.988C146.836 145.982 143.564 149.246 139.56 149.246C135.555 149.246 132.283 145.982 132.283 141.988Z" fill="#355B3E"/>
<path d="M139.559 144.036C138.416 144.036 137.506 143.103 137.506 141.988C137.506 140.848 138.442 139.941 139.559 139.941C140.703 139.941 141.613 140.874 141.613 141.988C141.613 143.103 140.703 144.036 139.559 144.036Z" fill="#FDC858"/>
<path fill-rule="evenodd" clip-rule="evenodd" d="M139.559 140.977C139.007 140.977 138.546 141.429 138.546 141.988C138.546 142.539 138.999 142.999 139.559 142.999C140.12 142.999 140.573 142.539 140.573 141.988C140.573 141.438 140.12 140.977 139.559 140.977ZM136.467 141.988C136.467 140.267 137.876 138.904 139.559 138.904C141.286 138.904 142.652 140.31 142.652 141.988C142.652 143.667 141.286 145.073 139.559 145.073C137.833 145.073 136.467 143.667 136.467 141.988Z" fill="#355B3E"/>
<path d="M52.4969 145.28H49.6642C48.4947 145.28 47.5591 144.347 47.5591 143.181V134.809C47.5591 133.642 48.4947 132.709 49.6642 132.709H52.4969V145.28Z" fill="white"/>
<path fill-rule="evenodd" clip-rule="evenodd" d="M49.6642 133.746C49.0688 133.746 48.5986 134.215 48.5986 134.809V143.181C48.5986 143.774 49.0688 144.243 49.6642 144.243H51.4574V133.746H49.6642ZM46.5195 134.809C46.5195 133.07 47.9206 131.672 49.6642 131.672H52.4969C53.0711 131.672 53.5365 132.136 53.5365 132.709V145.28C53.5365 145.853 53.0711 146.317 52.4969 146.317H49.6642C47.9206 146.317 46.5195 144.92 46.5195 143.181V134.809Z" fill="#355B3E"/>
<path d="M52.9132 129.339H51.8736C51.0939 129.339 50.4702 128.717 50.4702 127.94V121.512C50.4702 120.734 51.0939 120.112 51.8736 120.112H52.9132C53.6928 120.112 54.3165 120.734 54.3165 121.512V127.94C54.3165 128.717 53.6928 129.339 52.9132 129.339Z" fill="white"/>
<path fill-rule="evenodd" clip-rule="evenodd" d="M51.8736 121.149C51.6681 121.149 51.5098 121.307 51.5098 121.512V127.94C51.5098 128.145 51.6681 128.303 51.8736 128.303H52.9131C53.1187 128.303 53.277 128.145 53.277 127.94V121.512C53.277 121.307 53.1187 121.149 52.9131 121.149H51.8736ZM49.4307 121.512C49.4307 120.161 50.5198 119.075 51.8736 119.075H52.9131C54.2669 119.075 55.3561 120.161 55.3561 121.512V127.94C55.3561 129.29 54.2669 130.376 52.9131 130.376H51.8736C50.5198 130.376 49.4307 129.29 49.4307 127.94V121.512Z" fill="#355B3E"/>
<path d="M171.344 147.276H160.169C158.869 147.276 157.83 146.239 157.83 144.943V143.129C157.83 141.833 158.869 140.796 160.169 140.796H171.344C172.643 140.796 173.683 141.833 173.683 143.129V144.943C173.683 146.213 172.617 147.276 171.344 147.276Z" fill="white"/>
<path d="M160.324 144.762C160.324 144.114 160.87 143.569 161.52 143.569H173.656V143.129C173.656 141.833 172.617 140.796 171.317 140.796H160.142C158.843 140.796 157.803 141.833 157.803 143.129V144.943C157.803 146.239 158.843 147.276 160.142 147.276H160.324V144.762Z" fill="#D8D8D8"/>
<path fill-rule="evenodd" clip-rule="evenodd" d="M160.169 141.833C159.443 141.833 158.869 142.405 158.869 143.129V144.943C158.869 145.667 159.443 146.239 160.169 146.239H171.344C172.043 146.239 172.643 145.641 172.643 144.943V143.129C172.643 142.405 172.069 141.833 171.344 141.833H160.169ZM156.79 143.129C156.79 141.26 158.295 139.759 160.169 139.759H171.344C173.217 139.759 174.722 141.26 174.722 143.129V144.943C174.722 146.786 173.191 148.313 171.344 148.313H160.169C158.295 148.313 156.79 146.812 156.79 144.943V143.129Z" fill="#355B3E"/>
<path d="M152.424 111.792H140.391C139.014 111.792 137.896 110.677 137.896 109.303V97.199C137.896 95.8252 139.014 94.7107 140.391 94.7107H147.694C150.578 94.7107 153.021 96.8102 153.463 99.6614L154.867 108.915C155.127 110.444 153.957 111.792 152.424 111.792Z" fill="#FDC858"/>
<path opacity="0.56" d="M142.99 100.18C142.99 98.806 144.107 97.6915 145.485 97.6915H152.788C151.774 95.903 149.851 94.7366 147.694 94.7366H140.391C139.014 94.7366 137.896 95.8512 137.896 97.2249V109.329C137.896 110.703 139.014 111.818 140.391 111.818H142.99V100.18Z" fill="#FDC858"/>
<path fill-rule="evenodd" clip-rule="evenodd" d="M140.391 95.7475C139.588 95.7475 138.936 96.3979 138.936 97.199V109.304C138.936 110.105 139.588 110.755 140.391 110.755H152.424C153.323 110.755 153.992 109.975 153.842 109.088C153.841 109.082 153.84 109.076 153.839 109.07L152.436 99.8197C152.436 99.8193 152.436 99.8188 152.436 99.8183C152.071 97.4698 150.062 95.7475 147.694 95.7475H140.391ZM136.856 97.199C136.856 95.2526 138.439 93.6739 140.391 93.6739H147.694C151.095 93.6739 153.971 96.1499 154.491 99.503L154.491 99.5063L155.893 108.751C156.256 110.919 154.587 112.829 152.424 112.829H140.391C138.439 112.829 136.856 111.25 136.856 109.304V97.199Z" fill="#355B3E"/>
<path d="M129.891 111.533H103.331C101.953 111.533 100.836 110.418 100.836 109.044V96.9398C100.836 95.5661 101.953 94.4515 103.331 94.4515H129.891C131.269 94.4515 132.386 95.5661 132.386 96.9398V109.044C132.36 110.418 131.269 111.533 129.891 111.533Z" fill="#FDC858"/>
<path opacity="0.56" d="M105.644 99.6095C105.644 98.2358 106.761 97.1212 108.139 97.1212H132.36V96.9398C132.36 95.5661 131.243 94.4515 129.865 94.4515H103.331C101.953 94.4515 100.836 95.5661 100.836 96.9398V109.044C100.836 110.418 101.953 111.533 103.331 111.533H105.67V99.6095H105.644Z" fill="#FDC858"/>
<path fill-rule="evenodd" clip-rule="evenodd" d="M103.331 95.4883C102.528 95.4883 101.875 96.1386 101.875 96.9398V109.044C101.875 109.845 102.528 110.496 103.331 110.496H129.891C130.674 110.496 131.327 109.863 131.347 109.033V96.9398C131.347 96.1386 130.695 95.4883 129.891 95.4883H103.331ZM99.7964 96.9398C99.7964 94.9934 101.379 93.4147 103.331 93.4147H129.891C131.843 93.4147 133.426 94.9934 133.426 96.9398V109.044C133.426 109.051 133.426 109.057 133.426 109.064C133.389 110.977 131.86 112.569 129.891 112.569H103.331C101.379 112.569 99.7964 110.991 99.7964 109.044V96.9398Z" fill="#355B3E"/>
<path d="M88.7512 111.792H63.7241C62.3207 111.792 61.3071 110.237 61.697 108.656L64.5817 96.551C64.8416 95.4883 65.6732 94.7366 66.6088 94.7366H88.7512C89.9207 94.7366 90.8563 95.8512 90.8563 97.2249V109.329C90.8823 110.677 89.9207 111.792 88.7512 111.792Z" fill="#FDC858"/>
<path opacity="0.56" d="M66.375 111.196L69.2597 99.0911C69.5196 98.0284 70.3513 97.2767 71.2869 97.2767H90.8563V97.199C90.8563 95.8252 89.9208 94.7107 88.7513 94.7107H66.6089C65.6733 94.7107 64.8417 95.4624 64.5818 96.5251L61.697 108.63C61.3332 110.211 62.3208 111.766 63.7241 111.766H66.297C66.323 111.584 66.349 111.403 66.375 111.196Z" fill="#FDC858"/>
<path fill-rule="evenodd" clip-rule="evenodd" d="M65.5927 96.794L62.7088 108.895L62.7069 108.903C62.4276 110.036 63.1926 110.755 63.7245 110.755H88.7516C89.2085 110.755 89.8349 110.256 89.8174 109.349C89.8172 109.343 89.8172 109.336 89.8172 109.329V97.2249C89.8172 96.2492 89.1864 95.7734 88.7516 95.7734H66.6093C66.2663 95.7734 65.7688 96.0783 65.5927 96.794ZM63.5722 96.3053C63.9165 94.8975 65.0814 93.6998 66.6093 93.6998H88.7516C90.6559 93.6998 91.8963 95.4531 91.8963 97.2249V109.32C91.9253 111.105 90.6299 112.829 88.7516 112.829H63.7245C61.4512 112.829 60.1892 110.441 60.6869 108.412L63.5708 96.3112L63.5722 96.3053Z" fill="#355B3E"/>
<path opacity="0.48" fill-rule="evenodd" clip-rule="evenodd" d="M91.0645 89.0861C91.0645 88.943 91.1808 88.8269 91.3243 88.8269C94.4306 88.8269 96.9379 91.3276 96.9379 94.4256V143.466C96.9379 143.609 96.8215 143.725 96.678 143.725C96.5345 143.725 96.4181 143.609 96.4181 143.466V94.4256C96.4181 91.6139 94.1435 89.3453 91.3243 89.3453C91.1808 89.3453 91.0645 89.2293 91.0645 89.0861Z" fill="#355B3E"/>
<path fill-rule="evenodd" clip-rule="evenodd" d="M83.3716 118.013C83.3716 117.44 83.837 116.976 84.4111 116.976H92.2077C92.7819 116.976 93.2473 117.44 93.2473 118.013C93.2473 118.585 92.7819 119.049 92.2077 119.049H84.4111C83.837 119.049 83.3716 118.585 83.3716 118.013Z" fill="#355B3E"/>
<path fill-rule="evenodd" clip-rule="evenodd" d="M123.836 117.416C123.836 116.844 124.301 116.38 124.875 116.38H131.529C132.103 116.38 132.568 116.844 132.568 117.416C132.568 117.989 132.103 118.453 131.529 118.453H124.875C124.301 118.453 123.836 117.989 123.836 117.416Z" fill="#355B3E"/>
<path d="M170.044 135.431H169.03V110.677H170.044C171.759 110.677 173.162 112.077 173.162 113.788V132.32C173.162 134.031 171.759 135.431 170.044 135.431Z" fill="#D8D8D8"/>
<path fill-rule="evenodd" clip-rule="evenodd" d="M167.991 110.677C167.991 110.105 168.457 109.64 169.031 109.64H170.044C172.334 109.64 174.203 111.504 174.203 113.788V132.32C174.203 134.604 172.334 136.467 170.044 136.467H169.031C168.457 136.467 167.991 136.003 167.991 135.431V110.677ZM170.07 111.714V134.394C171.2 134.38 172.123 133.45 172.123 132.32V113.788C172.123 112.658 171.2 111.728 170.07 111.714Z" fill="#355B3E"/>
<path fill-rule="evenodd" clip-rule="evenodd" d="M156.79 97.3286C156.79 96.756 157.255 96.2918 157.83 96.2918H160.974C161.548 96.2918 162.014 96.756 162.014 97.3286C162.014 97.9012 161.548 98.3654 160.974 98.3654H157.83C157.255 98.3654 156.79 97.9012 156.79 97.3286Z" fill="#355B3E"/>
<path fill-rule="evenodd" clip-rule="evenodd" d="M158.089 101.787C158.089 101.214 158.555 100.75 159.129 100.75H162.274C162.848 100.75 163.313 101.214 163.313 101.787C163.313 102.359 162.848 102.824 162.274 102.824H159.129C158.555 102.824 158.089 102.359 158.089 101.787Z" fill="#355B3E"/>
<path fill-rule="evenodd" clip-rule="evenodd" d="M159.311 106.219C159.311 105.646 159.776 105.182 160.35 105.182H163.495C164.069 105.182 164.534 105.646 164.534 106.219C164.534 106.792 164.069 107.256 163.495 107.256H160.35C159.776 107.256 159.311 106.792 159.311 106.219Z" fill="#355B3E"/>
<path fill-rule="evenodd" clip-rule="evenodd" d="M159.831 110.677C159.831 110.105 160.296 109.64 160.87 109.64H164.041C164.615 109.64 165.08 110.105 165.08 110.677C165.08 111.25 164.615 111.714 164.041 111.714H160.87C160.296 111.714 159.831 111.25 159.831 110.677Z" fill="#355B3E"/>
<path d="M122.875 145.073H89.2714C87.868 145.073 86.7505 143.958 86.7505 142.559C86.7505 141.159 87.868 140.044 89.2714 140.044H122.875C124.278 140.044 125.396 141.159 125.396 142.559C125.396 143.932 124.278 145.073 122.875 145.073Z" fill="white"/>
<path d="M122.875 145.073H89.2714C87.868 145.073 86.7505 143.958 86.7505 142.559C86.7505 141.159 87.868 140.044 89.2714 140.044H122.875C124.278 140.044 125.396 141.159 125.396 142.559C125.396 143.932 124.278 145.073 122.875 145.073Z" fill="white"/>
<path d="M125.396 140.044H86.7505V142.559H125.396V140.044Z" fill="#D8D8D8"/>
<path fill-rule="evenodd" clip-rule="evenodd" d="M89.2714 141.081C88.4421 141.081 87.79 141.731 87.79 142.559C87.79 143.386 88.4421 144.036 89.2714 144.036H122.875C123.697 144.036 124.356 143.367 124.356 142.559C124.356 141.731 123.704 141.081 122.875 141.081H89.2714ZM85.7109 142.559C85.7109 140.586 87.2939 139.008 89.2714 139.008H122.875C124.852 139.008 126.435 140.586 126.435 142.559C126.435 144.498 124.859 146.11 122.875 146.11H89.2714C87.2939 146.11 85.7109 144.531 85.7109 142.559Z" fill="#355B3E"/>
<path fill-rule="evenodd" clip-rule="evenodd" d="M74.1227 99.89C74.3262 100.092 74.3271 100.42 74.1246 100.623L69.0308 105.729C68.8284 105.932 68.4993 105.933 68.2958 105.731C68.0923 105.529 68.0914 105.201 68.2939 104.998L73.3877 99.8919C73.5901 99.6889 73.9192 99.6881 74.1227 99.89Z" fill="#355B3E"/>
<path fill-rule="evenodd" clip-rule="evenodd" d="M80.2035 98.5677C80.4072 98.7694 80.4085 99.0976 80.2063 99.3008L73.3452 106.195C73.143 106.399 72.8139 106.4 72.6102 106.198C72.4064 105.997 72.4052 105.668 72.6074 105.465L79.4684 98.5705C79.6706 98.3672 79.9997 98.366 80.2035 98.5677Z" fill="#355B3E"/>
<path fill-rule="evenodd" clip-rule="evenodd" d="M113.675 99.2661C113.88 99.467 113.882 99.7952 113.681 99.9992L108.613 105.131C108.412 105.335 108.083 105.338 107.878 105.137C107.674 104.936 107.671 104.608 107.873 104.404L112.94 99.2717C113.142 99.0677 113.471 99.0652 113.675 99.2661Z" fill="#355B3E"/>
<path fill-rule="evenodd" clip-rule="evenodd" d="M119.784 97.9715C119.988 98.1732 119.989 98.5014 119.787 98.7046L112.926 105.599C112.724 105.802 112.394 105.804 112.191 105.602C111.987 105.4 111.986 105.072 112.188 104.869L119.049 97.9743C119.251 97.7711 119.58 97.7698 119.784 97.9715Z" fill="#355B3E"/>
<path fill-rule="evenodd" clip-rule="evenodd" d="M145.746 100.666C145.95 100.867 145.952 101.196 145.751 101.399L141.566 105.624C141.365 105.828 141.036 105.83 140.831 105.629C140.627 105.428 140.625 105.099 140.827 104.896L145.011 100.671C145.213 100.467 145.542 100.465 145.746 100.666Z" fill="#355B3E"/>
<path fill-rule="evenodd" clip-rule="evenodd" d="M150.762 99.5774C150.966 99.7785 150.968 100.107 150.767 100.311L145.127 106.013C144.926 106.217 144.596 106.219 144.392 106.018C144.188 105.817 144.185 105.489 144.387 105.285L150.027 99.5825C150.228 99.3786 150.557 99.3764 150.762 99.5774Z" fill="#355B3E"/>
<path d="M183.922 118.946L205.389 68.2466C205.857 67.158 207.416 67.158 207.884 68.2466L229.35 118.946C231.923 125.011 226.44 131.361 218.643 131.361H194.63C186.833 131.361 181.349 125.011 183.922 118.946Z" fill="#FDC858"/>
<path d="M183.922 118.946L205.389 68.2466C205.857 67.158 207.416 67.158 207.884 68.2466L229.35 118.946C231.923 125.011 226.44 131.361 218.643 131.361H194.63C186.833 131.361 181.349 125.011 183.922 118.946Z" fill="#FDC858"/>
<path opacity="0.56" d="M194.421 121.33L209.729 72.5752L207.91 68.2466C207.442 67.158 205.883 67.158 205.415 68.2466L183.948 118.946C181.375 125.011 186.859 131.361 194.655 131.361H196.475C194.188 129.443 193.304 126.255 194.421 121.33Z" fill="#FDC858"/>
<path fill-rule="evenodd" clip-rule="evenodd" d="M206.636 76.5412C207.21 76.5412 207.676 77.0054 207.676 77.578V153.886C207.676 154.458 207.21 154.922 206.636 154.922C206.062 154.922 205.597 154.458 205.597 153.886V77.578C205.597 77.0054 206.062 76.5412 206.636 76.5412Z" fill="#355B3E"/>
<path fill-rule="evenodd" clip-rule="evenodd" d="M213.574 87.4895C213.97 87.9039 213.955 88.5602 213.539 88.9554L207.354 94.8391C206.952 95.2218 206.319 95.2211 205.917 94.8376L199.758 88.9539C199.343 88.5578 199.329 87.9015 199.726 87.488C200.123 87.0744 200.781 87.0603 201.196 87.4564L206.638 92.6547L212.104 87.4549C212.52 87.0597 213.178 87.0752 213.574 87.4895Z" fill="#355B3E"/>
<path fill-rule="evenodd" clip-rule="evenodd" d="M198.53 98.6851C198.928 98.2715 199.586 98.2573 200 98.6534L206.636 104.991L213.272 98.6534C213.687 98.2573 214.345 98.2715 214.742 98.6851C215.139 99.0987 215.125 99.755 214.71 100.151L207.355 107.175C206.953 107.559 206.319 107.559 205.917 107.175L198.562 100.151C198.148 99.755 198.133 99.0987 198.53 98.6851Z" fill="#355B3E"/>
<path fill-rule="evenodd" clip-rule="evenodd" d="M193.556 111.51C193.913 111.061 194.567 110.987 195.016 111.343L206.636 120.55L218.256 111.343C218.706 110.987 219.36 111.061 219.717 111.51C220.074 111.958 219.999 112.61 219.55 112.966L207.283 122.686C206.904 122.986 206.368 122.986 205.99 122.686L193.723 112.966C193.273 112.61 193.199 111.958 193.556 111.51Z" fill="#355B3E"/>
<path fill-rule="evenodd" clip-rule="evenodd" d="M130.768 0.485111C131.174 0.0802194 131.832 0.0802194 132.238 0.485111L134.622 2.86236L137.005 0.485111C137.411 0.0802194 138.069 0.0802194 138.475 0.485111C138.881 0.890002 138.881 1.54646 138.475 1.95135L135.357 5.06172C134.951 5.46661 134.292 5.46661 133.886 5.06172L130.768 1.95135C130.362 1.54646 130.362 0.890002 130.768 0.485111Z" fill="#007549"/>
<path fill-rule="evenodd" clip-rule="evenodd" d="M153.946 4.53163C154.351 4.12506 155.009 4.12234 155.417 4.52555L157.826 6.90887L160.213 4.52858C160.619 4.12369 161.277 4.12369 161.683 4.52858C162.089 4.93347 162.089 5.58993 161.683 5.99482L158.564 9.10519C158.159 9.5089 157.504 9.51025 157.097 9.10823L153.953 5.99786C153.545 5.59465 153.542 4.9382 153.946 4.53163Z" fill="#007549"/>
<path fill-rule="evenodd" clip-rule="evenodd" d="M203.38 21.2468C203.786 20.8419 204.444 20.8419 204.85 21.2468L207.237 23.6271L209.646 21.2438C210.054 20.8406 210.712 20.8433 211.117 21.2499C211.521 21.6564 211.518 22.3129 211.111 22.7161L207.966 25.8265C207.559 26.2285 206.904 26.2271 206.499 25.8234L203.38 22.7131C202.974 22.3082 202.974 21.6517 203.38 21.2468Z" fill="#007549"/>
<path fill-rule="evenodd" clip-rule="evenodd" d="M106.813 153.885C106.813 153.313 107.279 152.849 107.853 152.849H180.102C180.676 152.849 181.141 153.313 181.141 153.885C181.141 154.458 180.676 154.922 180.102 154.922H107.853C107.279 154.922 106.813 154.458 106.813 153.885Z" fill="#355B3E"/>
<path fill-rule="evenodd" clip-rule="evenodd" d="M99.0171 153.885C99.0171 153.313 99.4825 152.849 100.057 152.849H108.815C109.389 152.849 109.854 153.313 109.854 153.885C109.854 154.458 109.389 154.922 108.815 154.922H100.057C99.4825 154.922 99.0171 154.458 99.0171 153.885Z" fill="#355B3E"/>
</svg>
