<svg width="800" height="800" viewBox="0 0 800 800" fill="none" xmlns="http://www.w3.org/2000/svg">
<g clip-path="url(#clip0_4_596)">
<rect width="800" height="800" fill="#0E121C"/>
<path opacity="0.91" d="M402.95 -90.49C411.46 -91.49 420.01 -92.25 428.6 -92.75C437.19 -93.19 445.81 -93.35 454.48 -93.23C463.15 -93.01 471.86 -92.48 480.59 -91.64C489.34 -90.68 498.1 -89.41 506.89 -87.82C515.66 -86.11 524.44 -84.09 533.2 -81.76C541.94 -79.32 550.64 -76.59 559.27 -73.58C567.83 -70.48 576.3 -67.12 584.62 -63.52C592.83 -59.86 600.84 -55.98 608.63 -51.9C616.24 -47.8 623.56 -43.52 630.56 -39.09C637.32 -34.67 643.7 -30.12 649.67 -25.45C655.38 -20.83 660.66 -16.11 665.5 -11.31C670.09 -6.58 674.28 -1.77999 678.07 3.07001C683.42 10.25 693.02 24.73 697.75 32.01C701.23 36.78 704.93 41.61 708.95 46.49C713.55 51.28 718.63 56.13 724.28 61.05C730.64 65.9 737.63 70.82 745.22 75.83C753.47 80.78 762.21 85.82 771.35 90.97C780.8 96.07 790.33 101.29 799.77 106.62C808.97 111.93 817.65 117.36 825.6 122.93C832.73 128.49 838.78 134.18 843.6 140.01C847.26 145.84 849.57 151.82 850.56 157.94C850.54 164.07 849.44 170.34 847.48 176.75C845.17 183.18 842.57 189.75 840 196.45C838.04 203.17 836.75 210.03 836.41 217.01C837.46 224.01 839.82 231.14 843.57 238.37C848.81 245.63 855.26 253 862.68 260.47C870.87 267.95 879.33 275.54 887.62 283.21C895.44 290.89 902.21 298.66 907.54 306.51C911.3 314.37 913.11 322.29 912.86 330.29C910.83 338.29 906.96 346.35 901.55 354.47C895.25 362.59 888.3 370.76 881.22 378.99C874.78 387.21 869.28 395.39 865.11 403.51C862.68 411.64 861.94 419.71 862.86 427.74C865.5 435.76 869.37 443.74 874.11 451.67C879.52 459.61 884.91 467.5 889.81 475.36C894.04 483.23 896.99 491.06 898.38 498.86C898.25 506.7 896.3 514.5 892.56 522.29C887.34 530.12 880.68 537.94 872.86 545.75C864.35 553.62 855.36 561.49 846.28 569.38C837.52 577.32 829.29 585.29 821.84 593.29C815.46 601.35 810.16 609.45 805.97 617.57C803.02 625.78 801.06 634.02 799.95 642.29C799.7 650.63 799.9 659 800.31 667.38C800.93 675.82 801.31 684.27 801.23 692.71C800.75 701.18 799.48 709.62 797.33 717.99C794.41 726.36 790.5 734.64 785.62 742.8C779.93 750.88 773.35 758.81 765.99 766.54C758.04 774.14 749.51 781.48 740.56 788.55C731.33 795.41 721.89 801.93 712.38 808.08C702.9 813.96 693.52 819.43 684.32 824.44C675.36 829.13 666.68 833.35 658.29 837.06C650.24 840.44 642.5 843.3 635.05 845.64C627.95 847.67 621.09 849.2 614.43 850.25C608.05 851.04 601.81 851.39 595.65 851.35C589.68 851.16 583.72 850.65 577.73 849.87C571.85 849.1 565.88 848.16 559.79 847.11C553.74 846.23 547.54 845.36 541.16 844.56C534.78 844.09 528.21 843.81 521.45 843.74C514.66 844.15 507.67 844.86 500.49 845.9C493.28 847.49 485.87 849.45 478.28 851.77C470.67 854.64 462.88 857.85 454.92 861.36C446.95 865.33 438.82 869.52 430.54 873.87C422.25 878.49 413.83 883.14 405.27 887.72C396.71 892.34 388.12 896.68 379.52 900.66C370.93 904.44 362.33 907.7 353.73 910.39C345.13 912.68 336.54 914.3 327.97 915.22C319.4 915.62 310.86 915.26 302.34 914.16C293.85 912.51 285.39 910.12 276.98 907.03C268.6 903.44 260.28 899.21 252.03 894.38C243.82 889.18 235.7 883.49 227.69 877.37C219.74 871.03 211.9 864.37 204.2 857.48C196.58 850.51 189.11 843.42 181.8 836.25C174.58 829.17 167.54 822.11 160.68 815.11C153.91 808.32 147.32 801.66 140.92 795.15C134.6 788.93 128.45 782.9 122.48 777.06C116.54 771.54 110.75 766.23 105.1 761.1C99.44 756.28 93.89 751.64 88.43 747.15C82.91 742.94 77.46 738.84 72.06 734.82C66.57 731.03 61.13 727.28 55.72 723.55C50.22 719.97 44.76 716.36 39.36 712.68C33.89 709.1 28.51 705.42 23.23 701.6C17.93 697.83 12.78 693.9 7.78001 689.78C2.82001 685.66 -1.93999 681.34 -6.50999 676.81C-11.02 672.24 -15.32 667.44 -19.4 662.41C-23.44 657.33 -27.29 652.01 -30.96 646.45C-34.63 640.84 -38.14 634.99 -41.52 628.92C-44.93 622.78 -48.22 616.42 -51.39 609.86C-54.6 603.24 -57.68 596.42 -60.62 589.42C-63.56 582.36 -66.32 575.13 -68.87 567.74C-71.37 560.31 -73.62 552.73 -75.61 545.01C-77.52 537.27 -79.15 529.39 -80.52 521.4C-81.84 513.39 -82.92 505.27 -83.79 497.05C-84.69 488.82 -85.44 480.5 -86.06 472.1C-86.77 463.69 -87.39 455.21 -87.92 446.65C-88.56 438.09 -89.09 429.47 -89.47 420.78C-89.89 412.1 -90.11 403.45 -90.08 394.85C-89.99 386.25 -89.61 377.7 -88.92 369.19C-88.12 360.68 -87.01 352.22 -85.6 343.81C-84.12 335.4 -82.38 327.03 -80.42 318.71C-78.45 310.38 -76.32 302.1 -74.05 293.86C-71.83 285.62 -69.51 277.42 -67.07 269.26C-64.7 261.09 -62.21 252.97 -59.58 244.89C-56.99 236.8 -54.22 228.75 -51.27 220.76C-48.3 212.75 -45.12 204.78 -41.72 196.87C-38.28 188.95 -34.62 181.09 -30.77 173.29C-26.88 165.49 -22.82 157.75 -18.6 150.09C-14.41 142.43 -10.09 134.86 -5.65999 127.38C-1.28999 119.92 3.16001 112.56 7.70001 105.32C12.18 98.11 16.75 91.02 21.42 84.08C26.05 77.19 30.81 70.45 35.71 63.87C40.63 57.37 45.72 51.04 51 44.9C56.36 38.85 61.92 33 67.7 27.37C73.59 21.83 79.69 16.52 86.01 11.44C92.43 6.46 99.05 1.72 105.86 -2.77C112.74 -7.17 119.78 -11.33 126.96 -15.24C134.18 -19.07 141.5 -22.66 148.91 -26.02C156.3 -29.31 163.77 -32.38 171.28 -35.24C178.75 -38.06 186.25 -40.68 193.79 -43.12C201.25 -45.56 208.74 -47.83 216.25 -49.95C223.68 -52.1 231.15 -54.12 238.64 -56.02C246.06 -57.99 253.53 -59.85 261.03 -61.62C268.48 -63.49 275.99 -65.28 283.56 -66.99C291.08 -68.82 298.68 -70.57 306.36 -72.26C314.01 -74.06 321.75 -75.79 329.59 -77.44C337.41 -79.19 345.33 -80.85 353.37 -82.4C361.39 -84.03 369.53 -85.53 377.79 -86.88C386.04 -88.27 394.42 -89.48 402.94 -90.49" stroke="url(#paint0_linear_4_596)" stroke-width="2.5" stroke-linecap="round" stroke-dasharray="19 2"/>
<path opacity="0.36" d="M436.783 -71.6733C445.15 -72.2124 453.512 -72.5113 461.869 -72.5601C470.233 -72.5583 478.582 -72.2871 486.904 -71.7368C495.231 -71.0962 503.53 -70.1567 511.801 -68.9183C520.046 -67.5612 528.253 -65.9059 536.392 -63.954C544.504 -61.8735 552.527 -59.4877 560.455 -56.827C568.314 -54.0401 576.048 -50.9802 583.616 -47.6595C591.098 -44.2437 598.385 -40.579 605.439 -36.6976C612.368 -32.7433 619.036 -28.5942 625.412 -24.2518C631.616 -19.8895 637.5 -15.3658 643.046 -10.7017C648.401 -6.04877 653.409 -1.27609 658.05 3.6052C662.524 8.43657 666.663 13.3484 670.477 18.3212C674.214 23.2494 677.697 28.2328 680.966 33.2637C684.29 38.2277 687.532 43.237 690.759 48.3055C694.222 53.2877 697.822 58.328 701.629 63.4307C705.88 68.4593 710.489 73.5591 715.513 78.7334C721.122 83.852 727.237 89.0505 733.857 94.3388C741.062 99.5814 748.742 104.912 756.836 110.347C765.324 115.726 774.037 121.207 782.835 126.774C791.646 132.292 800.221 137.896 808.402 143.576C816.095 149.188 823.044 154.857 829.086 160.602C834.223 166.254 838.234 171.969 841.04 177.734C842.828 183.429 843.451 189.186 842.978 194.998C841.797 200.769 839.849 206.634 837.374 212.589C834.88 218.553 832.378 224.636 830.177 230.878C828.764 237.175 828.163 243.641 828.563 250.286C830.31 257.031 833.257 263.956 837.436 271.084C842.872 278.286 849.26 285.654 856.35 293.174C863.948 300.734 871.581 308.396 878.849 316.137C885.517 323.852 891.081 331.592 895.213 339.339C897.847 346.997 898.66 354.628 897.581 362.228C894.905 369.743 890.597 377.233 884.908 384.711C878.449 392.155 871.418 399.624 864.262 407.156C857.706 414.724 851.98 422.311 847.423 429.946C844.444 437.664 842.975 445.441 843.034 453.288C844.68 461.229 847.515 469.209 851.231 477.222C855.685 485.277 860.259 493.33 864.546 501.336C868.392 509.336 871.212 517.255 872.734 525.088C872.956 532.875 871.562 540.556 868.512 548.13C864.051 555.661 858.123 563.115 850.967 570.497C842.939 577.878 834.222 585.228 825.124 592.576C816.033 599.975 807.161 607.406 798.757 614.885C791.128 622.459 784.326 630.113 778.462 637.841C773.702 645.695 769.91 653.616 767.005 661.599C765.047 669.678 763.727 677.804 762.867 685.938C762.485 694.129 762.165 702.295 761.736 710.413C761.219 718.517 760.247 726.524 758.671 734.405C756.599 742.196 753.726 749.821 750.033 757.246C745.648 764.521 740.415 771.556 734.387 778.313C727.73 784.883 720.38 791.132 712.459 797.036C704.1 802.715 695.343 808.019 686.309 812.926C677.101 817.563 667.787 821.783 658.448 825.57C649.176 829.061 640.021 832.108 631.024 834.694C622.243 837.002 613.689 838.852 605.383 840.256C597.351 841.406 589.564 842.139 582.023 842.456C574.752 842.599 567.682 842.383 560.792 841.837C554.107 841.223 547.547 840.356 541.069 839.283C534.738 838.259 528.423 837.126 522.103 835.922C515.871 834.924 509.567 833.952 503.189 833.066C496.83 832.521 490.351 832.139 483.729 831.97C477.102 832.24 470.318 832.793 463.356 833.635C456.375 834.987 449.205 836.648 441.865 838.63C434.488 841.09 426.923 843.841 419.203 846.852C411.439 850.261 403.514 853.852 395.442 857.563C387.346 861.514 379.109 865.467 370.737 869.341C362.372 873.256 353.983 876.9 345.605 880.203C337.237 883.326 328.886 885.98 320.557 888.104C312.268 889.89 304.015 891.046 295.831 891.566C287.684 891.617 279.607 890.981 271.611 889.659C263.674 887.839 255.828 885.334 248.091 882.163C240.421 878.536 232.857 874.294 225.426 869.499C218.077 864.328 210.857 858.674 203.782 852.607C196.781 846.285 189.94 839.651 183.264 832.747C176.664 825.746 170.224 818.576 163.962 811.295C157.766 804.058 151.733 796.801 145.879 789.554C140.065 782.47 134.418 775.456 128.913 768.56C123.426 761.896 118.08 755.381 112.844 749.032C107.592 742.953 102.43 737.049 97.3588 731.311C92.2104 725.859 87.1325 720.571 82.0863 715.425C76.9443 710.545 71.8352 705.786 66.7508 701.119C61.5524 696.686 56.3711 692.304 51.2268 687.974C45.9826 683.808 40.7883 679.646 35.6651 675.467C30.475 671.405 25.3881 667.289 20.4158 663.099C15.45 658.97 10.6404 654.74 6.01808 650.391C1.43394 646.074 -2.94113 641.609 -7.10597 636.976C-11.2015 632.357 -15.0557 627.552 -18.709 622.569C-22.3107 617.559 -25.711 612.36 -28.9092 606.962C-32.0956 601.536 -35.1194 595.898 -37.9817 590.07C-40.8711 584.19 -43.6282 578.107 -46.2345 571.843C-48.8783 565.537 -51.3806 559.038 -53.7325 552.369C-56.0915 545.648 -58.2708 538.768 -60.261 531.739C-62.2189 524.672 -63.9478 517.458 -65.4488 510.117C-66.8981 502.749 -68.1097 495.255 -69.0739 487.645C-69.9977 480.027 -70.7142 472.292 -71.2245 464.458C-71.7437 456.604 -72.0972 448.66 -72.2952 440.624C-72.563 432.584 -72.6851 424.453 -72.6928 416.248C-72.7598 408.03 -72.6823 399.741 -72.4503 391.38C-72.2384 383.018 -71.8179 374.688 -71.1797 366.401C-70.5114 358.116 -69.5854 349.876 -68.3916 341.682C-67.1379 333.492 -65.6165 325.347 -63.8378 317.258C-62.0192 309.171 -59.9722 301.117 -57.7285 293.125C-55.4742 285.124 -53.0625 277.172 -50.5035 269.269C-47.9738 261.354 -45.3161 253.476 -42.5315 245.657C-39.7863 237.824 -36.9037 230.04 -33.8743 222.315C-30.8543 214.579 -27.6569 206.894 -24.2828 199.269C-20.8888 191.646 -17.288 184.084 -13.4911 176.594C-9.64431 169.108 -5.61136 161.692 -1.38229 154.348C2.85559 147.024 7.25906 139.781 11.7976 132.625C16.3144 125.498 20.9463 118.458 25.6721 111.524C30.3257 104.626 35.0627 97.8427 39.8625 91.1833C44.5795 84.5692 49.3687 78.0896 54.219 71.7638C59.0159 65.4949 63.9037 59.3817 68.9008 53.4552C73.8737 47.5975 78.9853 41.9382 84.2454 36.478C89.5507 31.1006 95.0334 25.944 100.693 21.0082C106.438 16.1675 112.389 11.5595 118.536 7.1933C124.778 2.92288 131.226 -1.10502 137.86 -4.89155C144.579 -8.58294 151.474 -12.0336 158.524 -15.2346C165.641 -18.3716 172.884 -21.2808 180.245 -23.9727C187.633 -26.603 195.118 -29.0271 202.662 -31.2474C210.215 -33.4572 217.806 -35.4744 225.449 -37.3283C233.062 -39.194 240.706 -40.9076 248.381 -42.469C255.999 -44.0939 263.651 -45.5967 271.316 -46.9885C278.936 -48.4631 286.58 -49.836 294.249 -51.1274C301.874 -52.5215 309.545 -53.8428 317.242 -55.0925C324.915 -56.4537 332.625 -57.7627 340.401 -58.9877C348.143 -60.3349 355.952 -61.608 363.825 -62.7972C371.695 -64.0968 379.629 -65.2924 387.647 -66.3829C395.66 -67.5439 403.754 -68.5798 411.94 -69.46C420.129 -70.3902 428.397 -71.1354 436.773 -71.6739" stroke="url(#paint1_linear_4_596)" stroke-width="2.5" stroke-linecap="round" stroke-dasharray="13 16"/>
<path opacity="0.88" d="M465.626 -50.9643C473.764 -51.0598 481.845 -50.9304 489.868 -50.5761C497.875 -50.1635 505.822 -49.4961 513.677 -48.5677C521.522 -47.5498 529.264 -46.2621 536.913 -44.6935C544.518 -43.0092 552.011 -41.0563 559.367 -38.8072C566.672 -36.4536 573.812 -33.8173 580.778 -30.9095C587.663 -27.9006 594.355 -24.6324 600.828 -21.1185C607.189 -17.5169 613.312 -13.6917 619.169 -9.65636C624.917 -5.5533 630.371 -1.26345 635.534 3.19332C640.573 7.67573 645.311 12.314 649.753 17.0782C654.102 21.8518 658.158 26.7315 661.96 31.7022C665.715 36.6572 669.268 41.699 672.64 46.8202C676.077 51.8988 679.416 57.0463 682.726 62.2709C686.242 67.4495 689.831 72.697 693.563 78.0118C697.641 83.297 701.972 88.6524 706.616 94.095C711.726 99.5023 717.218 105.005 723.112 110.605C729.513 116.165 736.316 121.823 743.49 127.585C751.051 133.302 758.883 139.111 766.878 144.99C775.01 150.825 783.084 156.714 790.972 162.65C798.607 168.507 805.778 174.379 812.322 180.268C818.226 186.031 823.274 191.793 827.349 197.531C831.604 205.919 833.619 222.439 831.756 230.617C829.829 236.018 827.45 241.487 824.851 247.04C822.479 252.621 820.362 258.352 818.727 264.261C817.986 270.275 818.105 276.512 819.224 282.978C821.582 289.601 825.011 296.461 829.458 303.562C834.938 310.785 841.11 318.201 847.727 325.78C854.621 333.392 861.353 341.095 867.567 348.838C873.096 356.5 877.481 364.127 880.475 371.681C882.058 379.078 881.962 386.367 880.158 393.535C876.933 400.545 872.238 407.461 866.342 414.327C859.79 421.115 852.722 427.922 845.545 434.797C838.905 441.736 832.991 448.75 828.121 455.878C824.641 463.17 822.522 470.612 821.766 478.206C822.489 485.975 824.326 493.865 827.026 501.857C830.521 509.943 834.235 518.055 837.83 526.143C841.185 534.223 843.745 542.208 845.253 550.07C845.706 557.827 844.747 565.427 842.299 572.85C838.546 580.15 833.382 587.294 826.945 594.297C819.561 601.228 811.32 608.078 802.483 614.857C793.402 621.659 784.25 628.461 775.276 635.295C766.764 642.224 758.836 649.232 751.604 656.322C745.292 663.551 739.813 670.889 735.191 678.297C731.5 685.846 728.537 693.451 726.174 701.087C724.468 708.79 723.076 716.479 721.852 724.108C720.821 731.72 719.634 739.212 718.163 746.54C716.464 753.761 714.246 760.769 711.415 767.513C708.101 774.08 704.079 780.341 699.35 786.267C694.066 791.956 688.101 797.273 681.505 802.213C674.44 806.865 666.858 811.125 658.854 814.952C650.549 818.502 641.975 821.617 633.209 824.296C624.335 826.711 615.401 828.686 606.477 830.24C597.613 831.538 588.857 832.437 580.239 832.939C571.775 833.237 563.504 833.186 555.425 832.785C547.541 832.276 539.851 831.478 532.353 830.421C525.038 829.354 517.876 828.095 510.853 826.691C503.977 825.395 497.192 824.019 490.458 822.629C483.819 821.462 477.193 820.356 470.557 819.34C463.961 818.662 457.304 818.157 450.573 817.855C443.844 817.965 437.004 818.325 430.052 818.953C423.066 820.041 415.938 821.394 408.677 823.023C401.374 825.09 393.921 827.401 386.333 829.918C378.693 832.791 370.916 835.799 363.017 838.903C355.094 842.216 347.052 845.505 338.909 848.711C330.762 851.957 322.635 854.944 314.546 857.613C306.474 860.133 298.453 862.226 290.51 863.835C282.612 865.137 274.8 865.885 267.099 866.042C259.464 865.804 251.955 864.927 244.571 863.42C237.279 861.47 230.122 858.892 223.128 855.709C216.213 852.103 209.477 847.923 202.895 843.208C196.414 838.152 190.109 832.624 183.974 826.683C177.928 820.501 172.052 813.986 166.35 807.19C160.723 800.271 155.26 793.161 149.965 785.909C144.709 778.662 139.593 771.341 134.641 763.999C129.676 756.756 124.849 749.55 120.125 742.406C115.368 735.45 110.692 728.583 106.1 721.858C101.423 715.334 96.7997 708.957 92.2094 702.725C87.5104 696.732 82.8358 690.873 78.1646 685.155C73.366 679.664 68.5743 674.284 63.7896 669.016C58.8897 663.956 54.0014 658.968 49.1458 654.044C44.1984 649.3 39.3094 644.574 34.4974 639.877C29.6492 635.316 24.915 630.729 20.3244 626.118C15.742 621.609 11.3477 617.041 7.13285 612.405C2.99154 607.827 -0.948168 603.162 -4.65296 598.384C-8.28183 593.646 -11.6933 588.772 -14.8786 583.773C-18.0044 578.782 -20.9203 573.634 -23.6276 568.34C-26.3337 563.035 -28.8574 557.551 -31.2221 551.915C-33.6032 546.246 -35.8428 540.403 -37.9334 534.406C-40.059 528.365 -42.0443 522.159 -43.8793 515.789C-45.7319 509.398 -47.4144 502.845 -48.9192 496.152C-50.4205 489.429 -51.7155 482.58 -52.803 475.594C-53.8584 468.592 -54.6988 461.474 -55.3141 454.242C-55.8985 447.003 -56.2778 439.648 -56.4543 432.195C-56.6197 424.734 -56.6133 417.183 -56.424 409.532C-56.2644 401.878 -55.9331 394.133 -55.4411 386.307C-54.9887 378.476 -54.3559 370.566 -53.5448 362.596C-52.7524 354.614 -51.7526 346.666 -50.5554 338.752C-49.3383 330.84 -47.9039 322.964 -46.2435 315.135C-44.5445 307.32 -42.6381 299.54 -40.5057 291.807C-38.3645 284.085 -36.0171 276.407 -33.5044 268.78C-30.9917 261.152 -28.3225 253.563 -25.5089 246.031C-22.7153 238.497 -19.785 230.999 -16.7115 223.568C-13.6679 216.134 -10.459 208.75 -7.10576 201.423C-3.73386 194.108 -0.199014 186.863 3.52976 179.681C7.28715 172.512 11.2472 165.418 15.3878 158.415C19.5768 151.429 23.9574 144.525 28.4974 137.721C33.0661 130.93 37.7831 124.248 42.6285 117.671C47.4605 111.123 52.3801 104.686 57.3872 98.3601C62.3289 92.0767 67.326 85.9207 72.3674 79.9008C77.3236 73.9212 82.3129 68.0865 87.3542 62.409C92.2978 56.7904 97.3121 51.3413 102.376 46.0692C107.401 40.8731 112.512 35.8786 117.732 31.078C122.951 26.3681 128.305 21.8755 133.803 17.6114C139.342 13.4326 145.055 9.48589 150.939 5.79104C156.905 2.17627 163.053 -1.19537 169.373 -4.31513C175.785 -7.36356 182.37 -10.17 189.119 -12.7457C195.95 -15.2512 202.926 -17.5281 210.028 -19.5988C217.205 -21.6204 224.48 -23.4491 231.862 -25.0739C239.274 -26.7051 246.766 -28.1557 254.32 -29.448C261.888 -30.7689 269.508 -31.9426 277.164 -32.9912C284.816 -34.0906 292.506 -35.0849 300.214 -35.9763C307.912 -36.9595 315.631 -37.8596 323.37 -38.6669C331.101 -39.5858 338.845 -40.4428 346.621 -41.2255C354.381 -42.1309 362.173 -42.9721 369.987 -43.7402C377.796 -44.6298 385.646 -45.444 393.526 -46.1741C401.399 -47.0158 409.32 -47.7511 417.29 -48.39C425.247 -49.0909 433.261 -49.6743 441.317 -50.1017C449.368 -50.5699 457.469 -50.8711 465.616 -50.9655" stroke="url(#paint2_linear_4_596)" stroke-width="2.5" stroke-linecap="round" stroke-dasharray="21 26"/>
<path opacity="0.93" d="M488.419 -29.2338C496.234 -28.9168 503.944 -28.4053 511.535 -27.6814C519.107 -26.9101 526.555 -25.8968 533.86 -24.655C541.142 -23.3362 548.276 -21.7593 555.235 -19.9394C562.164 -18.013 568.905 -15.8256 575.448 -13.389C581.942 -10.8394 588.228 -8.04233 594.289 -5.00118C600.28 -1.86051 606.026 1.52069 611.539 5.1245C616.955 8.81272 622.131 12.7119 627.04 16.7972C631.874 20.9605 636.444 25.3001 640.761 29.7979C645.03 34.3379 649.061 39.0183 652.874 43.8425C656.672 48.6846 660.297 53.6481 663.78 58.7283C667.323 63.8092 670.786 68.9977 674.211 74.2812C677.809 79.565 681.441 84.9461 685.167 90.4253C689.178 95.9045 693.364 101.476 697.767 107.147C702.545 112.824 707.611 118.593 712.981 124.477C718.761 130.343 724.857 136.316 731.259 142.394C738.022 148.446 745.012 154.588 752.192 160.805C759.532 166.98 766.915 173.202 774.229 179.464C781.437 185.635 788.36 191.816 794.868 197.985C800.954 204.017 806.418 209.999 811.13 215.928C816.742 224.507 822.26 241.012 822.175 248.95C820.447 256.646 814.014 271.985 810.361 279.826C808.385 285.151 806.823 290.663 805.853 296.391C805.819 302.277 806.642 308.427 808.391 314.854C811.232 321.475 814.97 328.369 819.527 335.51C824.861 342.799 830.668 350.275 836.683 357.899C842.788 365.53 848.558 373.222 853.71 380.896C858.105 388.434 861.368 395.883 863.296 403.185C863.925 410.255 863.02 417.153 860.561 423.876C856.864 430.368 851.88 436.731 845.826 442.996C839.221 449.162 832.167 455.34 824.998 461.588C818.321 467.934 812.274 474.383 807.132 481.003C803.231 487.845 800.519 494.908 799.029 502.18C798.876 509.7 799.766 517.415 801.492 525.281C804.015 533.288 806.862 541.363 809.706 549.448C812.48 557.531 814.682 565.521 816.056 573.364C816.599 581.09 815.94 588.601 813.988 595.901C810.862 603.003 806.424 609.891 800.755 616.559C794.105 623.093 786.5 629.457 778.154 635.699C769.372 641.883 760.285 648.013 751.107 654.137C742.135 660.307 733.467 666.532 725.266 672.82C717.741 679.249 710.892 685.757 704.765 692.375C699.488 699.123 694.929 705.949 691.02 712.829C687.847 719.801 685.161 726.777 682.828 733.705C680.91 740.646 679.093 747.473 677.263 754.146C675.48 760.725 673.436 767.065 671.052 773.14C668.415 779.039 665.29 784.607 661.618 789.813C657.544 794.775 652.881 799.337 647.653 803.474C641.998 807.331 635.811 810.758 629.164 813.737C622.155 816.418 614.775 818.668 607.098 820.478C599.186 822.013 591.094 823.13 582.864 823.826C574.549 824.313 566.203 824.41 557.87 824.143C549.564 823.728 541.336 822.992 533.211 821.96C525.179 820.862 517.279 819.535 509.508 817.997C501.864 816.491 494.344 814.856 486.956 813.112C479.664 811.507 472.47 809.868 465.363 808.256C458.327 806.869 451.338 805.561 444.389 804.373C437.452 803.512 430.517 802.814 423.557 802.314C416.587 802.209 409.567 802.328 402.483 802.69C395.347 803.459 388.136 804.479 380.844 805.728C373.491 807.373 366.04 809.224 358.489 811.239C350.901 813.574 343.212 816.022 335.452 818.528C327.646 821.23 319.777 823.89 311.861 826.47C303.942 829.07 296.072 831.445 288.295 833.532C280.541 835.492 272.888 837.052 265.35 838.197C257.869 839.077 250.531 839.444 243.344 839.301C236.243 838.796 229.302 837.731 222.545 836.089C215.878 834.057 209.404 831.46 203.131 828.3C196.957 824.761 190.967 820.696 185.199 816.133C179.51 811.238 174.021 805.902 168.725 800.173C163.503 794.193 158.473 787.882 153.616 781.287C148.804 774.548 144.163 767.595 139.663 760.474C135.182 753.306 130.818 746.048 126.579 738.719C122.311 731.437 118.125 724.149 114.019 716.875C109.828 709.728 105.7 702.633 101.596 695.624C97.3945 688.77 93.2045 682.02 89.0149 675.381C84.6998 668.933 80.3753 662.596 76.0413 656.368C71.58 650.341 67.1111 644.415 62.6541 638.592C58.0815 632.962 53.536 627.407 49.0275 621.931C44.4479 616.624 39.9499 611.373 35.5452 606.169C31.114 601.113 26.8225 596.071 22.6902 591.048C18.5879 586.141 14.6813 581.219 10.9706 576.281C7.32639 571.426 3.91455 566.52 0.723483 561.573C-3.84074 554.187 -11.7781 539.059 -15.1998 531.247C-18.4295 523.327 -24.0971 506.805 -26.5742 498.197C-28.2379 492.374 -29.7571 486.425 -31.1381 480.328C-32.5452 474.206 -33.806 467.947 -34.901 461.556C-36.0138 455.151 -36.9411 448.617 -37.6764 441.974C-38.3984 435.314 -38.9168 428.538 -39.2254 421.667C-39.5107 414.78 -39.588 407.808 -39.4437 400.734C-39.2995 393.659 -38.9454 386.49 -38.3832 379.236C-37.8308 371.98 -37.0819 364.648 -36.1365 357.239C-35.1992 349.818 -34.0689 342.34 -32.742 334.786C-31.4152 327.232 -29.8915 319.712 -28.1905 312.225C-26.478 304.729 -24.5703 297.278 -22.4773 289.87C-20.3763 282.474 -18.098 275.11 -15.6345 267.789C-13.1825 260.476 -10.5667 253.212 -7.79515 245.986C-5.04503 238.767 -2.15075 231.594 0.876089 224.475C3.89133 217.364 7.04087 210.297 10.3311 203.296C13.6195 196.304 17.07 189.373 20.6711 182.508C24.2981 175.669 28.1052 168.902 32.0888 162.228C36.1297 155.574 40.3489 149.002 44.7608 142.547C49.2201 136.109 53.8721 129.788 58.6792 123.565C63.5187 117.389 68.5016 111.319 73.6048 105.373C78.6912 99.4642 83.8781 93.6749 89.1325 88.0195C94.3209 82.393 99.5553 76.9067 104.826 71.559C109.996 66.2644 115.192 61.1065 120.4 56.1132C125.506 51.1729 130.634 46.399 135.779 41.8111C140.853 37.2815 145.974 32.9432 151.153 28.7979C156.295 24.7376 161.523 20.8855 166.843 17.2531C172.169 13.703 177.627 10.3796 183.208 7.28123C188.843 4.27387 194.631 1.49677 200.56 -1.05184C206.576 -3.51398 212.745 -5.75572 219.057 -7.76896C225.469 -9.72352 232.018 -11.471 238.7 -13.0016C245.478 -14.495 252.375 -15.8045 259.382 -16.9319C266.457 -18.0471 273.627 -19.0033 280.889 -19.8006C288.199 -20.6303 295.577 -21.336 303.023 -21.9076C310.499 -22.5349 318.019 -23.063 325.581 -23.4919C333.172 -24.0176 340.787 -24.4575 348.43 -24.8214C356.092 -25.2936 363.782 -25.6998 371.482 -26.0433C379.201 -26.4952 386.93 -26.8844 394.679 -27.2192C402.436 -27.6542 410.212 -28.0249 417.995 -28.3231C425.794 -28.7099 433.608 -29.0127 441.423 -29.2037C449.252 -29.4735 457.078 -29.6117 464.911 -29.6168C472.75 -29.6611 480.58 -29.5347 488.409 -29.2356" stroke="url(#paint3_linear_4_596)" stroke-width="2.5" stroke-linecap="round" stroke-dasharray="13 18"/>
<path opacity="0.61" d="M505.363 -7.27913C512.791 -6.60886 520.051 -5.75263 527.166 -4.7155C534.261 -3.64181 541.191 -2.35065 547.936 -0.846679C554.655 0.723027 561.175 2.52266 567.499 4.54248C573.779 6.65489 579.851 8.99489 585.712 11.5722C591.508 14.2472 597.085 17.1474 602.425 20.2682C607.71 23.489 612.766 26.9327 617.589 30.5775C622.358 34.3224 626.895 38.2586 631.214 42.3789C635.506 46.565 639.599 50.9397 643.497 55.4837C647.4 60.0906 651.165 64.8494 654.79 69.7598C658.486 74.7181 662.096 79.8202 665.675 85.0488C669.379 90.3175 673.111 95.7265 676.895 101.261C680.898 106.828 685.025 112.517 689.297 118.333C693.86 124.178 698.618 130.152 703.606 136.242C708.909 142.347 714.451 148.57 720.222 154.91C726.274 161.235 732.526 167.67 738.934 174.184C745.507 180.654 752.136 187.19 758.736 193.76C765.314 200.252 771.717 206.744 777.845 213.221C783.699 219.56 789.103 225.843 793.951 232.044C798.297 238.063 801.942 243.966 804.833 249.749C807.8 258.049 808.806 273.757 807.093 281.244C804.355 288.505 797.523 303.105 794.387 310.693C792.495 318.631 793.1 336.052 796.045 345.643C799.217 352.357 803.088 359.332 807.565 366.565C812.608 373.923 817.899 381.454 823.204 389.092C828.435 396.701 833.214 404.304 837.296 411.854C840.603 419.207 842.807 426.399 843.743 433.39C843.502 440.099 841.867 446.576 838.85 452.815C834.77 458.809 829.551 464.622 823.384 470.312C816.783 475.886 809.776 481.477 802.662 487.134C795.984 492.896 789.847 498.808 784.487 504.907C780.215 511.276 776.98 517.905 774.823 524.802C773.879 532 773.888 539.427 774.689 547.064C776.278 554.89 778.233 562.824 780.313 570.789C782.447 578.787 784.2 586.704 785.33 594.471C785.834 602.109 785.352 609.521 783.772 616.669C781.193 623.609 777.43 630.255 772.508 636.633C766.627 642.803 759.777 648.729 752.09 654.455C743.845 660.067 735.118 665.543 726.103 670.93C717.048 676.318 708.067 681.692 699.308 687.089C690.988 692.58 683.138 698.133 675.855 703.76C669.27 709.524 663.323 715.369 658.001 721.271C653.4 727.294 649.342 733.324 645.77 739.347C642.731 745.416 640 751.404 637.456 757.252C634.025 765.86 626.763 781.652 622.436 788.635C617.413 794.918 604.731 805.009 597.045 808.76C591.447 810.833 585.463 812.462 579.122 813.647C572.521 814.584 565.643 815.094 558.54 815.212C551.253 815.11 543.824 814.655 536.295 813.848C528.682 812.918 521.027 811.689 513.363 810.201C505.688 808.67 498.044 806.93 490.458 805.029C482.882 803.172 475.38 801.219 467.958 799.193C460.562 797.317 453.238 795.438 445.978 793.594C438.734 791.981 431.53 790.46 424.369 789.062C417.203 787.981 410.042 787.056 402.897 786.32C395.706 785.944 388.496 785.778 381.266 785.824C373.977 786.246 366.656 786.887 359.276 787.73C351.844 788.92 344.357 790.292 336.829 791.799C329.233 793.587 321.603 795.47 313.943 797.398C306.245 799.48 298.533 801.539 290.81 803.513C283.082 805.506 275.474 807.302 267.979 808.837C260.523 810.258 253.208 811.343 246.065 812.057C238.968 812.536 232.06 812.566 225.352 812.151C218.721 811.415 212.292 810.182 206.085 808.447C199.974 806.355 194.077 803.758 188.415 800.653C182.835 797.207 177.495 793.274 172.354 788.894C167.309 784.199 162.467 779.089 157.84 773.599C153.261 767.864 148.865 761.792 144.649 755.444C140.462 748.928 136.412 742.188 132.501 735.255C128.579 728.238 124.769 721.093 121.046 713.845C117.263 706.593 113.552 699.297 109.886 691.981C106.124 684.724 102.399 677.486 98.6765 670.28C94.8459 663.181 91.0086 656.153 87.1671 649.185C83.1864 642.369 79.2065 635.636 75.2274 628.985C71.1142 622.508 67.0212 616.117 62.9363 609.822C58.7609 603.689 54.6373 597.641 50.5728 591.69C46.4613 585.891 42.4353 580.165 38.5362 574.51C34.641 569.01 30.8991 563.558 27.3298 558.157C23.803 552.879 20.4633 547.636 17.3469 542.406C12.8751 534.721 5.14743 519.428 1.86663 511.752C-1.1594 504.085 -6.29284 488.437 -8.46637 480.389C-10.5536 472.238 -14.1856 455.345 -15.7183 446.597C-16.7528 440.704 -17.6551 434.687 -18.3887 428.568C-19.1588 422.429 -19.7675 416.175 -20.2 409.829C-20.6279 403.464 -20.8602 397.012 -20.8871 390.476C-20.8899 383.925 -20.6896 377.299 -20.2549 370.595C-19.7984 363.887 -19.1291 357.106 -18.2374 350.255C-17.3165 343.411 -16.1731 336.497 -14.8291 329.518C-13.4559 322.546 -11.8722 315.512 -10.0903 308.422C-8.28882 301.337 -6.30768 294.274 -4.14178 287.255C-1.98561 280.235 0.335881 273.253 2.82269 266.312C5.29005 259.366 7.90327 252.455 10.6674 245.6C13.4024 238.739 16.2712 231.92 19.2617 225.15C22.2208 218.384 25.3136 211.659 28.5236 205.004C31.7141 198.345 35.0337 191.747 38.4922 185.213C41.9364 178.696 45.5486 172.251 49.3218 165.906C53.1242 159.567 57.1071 153.334 61.2631 147.194C65.4825 141.089 69.8801 135.1 74.4656 129.227C79.1145 123.39 83.9392 117.677 88.9277 112.096C93.9579 106.556 99.1226 101.141 104.417 95.8703C109.695 90.6263 115.072 85.5292 120.517 80.5722C125.913 75.6545 131.348 70.8698 136.806 66.2449C142.166 61.6477 147.539 57.208 152.906 52.9211C158.16 48.6791 163.406 44.5996 168.65 40.6947C173.791 36.8369 178.951 33.1585 184.106 29.6741C189.207 26.2387 194.33 23.0142 199.508 19.988C204.65 17.0252 209.875 14.2775 215.182 11.7449C220.494 9.27525 225.92 7.01796 231.454 4.99246C237.038 3.01985 242.755 1.26425 248.595 -0.276689C254.496 -1.77213 260.543 -3.05797 266.717 -4.14858C272.969 -5.22054 279.349 -6.09727 285.855 -6.81029C292.431 -7.51671 299.124 -8.07147 305.905 -8.47183C312.774 -8.90217 319.728 -9.20962 326.755 -9.39651C333.847 -9.63982 341.008 -9.78435 348.228 -9.83243C355.498 -9.96104 362.823 -10.015 370.17 -9.99152C377.581 -10.0657 385.008 -10.0746 392.462 -10.0255C399.951 -10.081 407.463 -10.0591 414.975 -9.99605C422.53 -10.0255 430.081 -9.99437 437.623 -9.88306C445.198 -9.86666 452.771 -9.75808 460.312 -9.55458C467.878 -9.41683 475.429 -9.16978 482.937 -8.78892C490.452 -8.43723 497.932 -7.93967 505.353 -7.28146" stroke="url(#paint4_linear_4_596)" stroke-width="2.5" stroke-linecap="round" stroke-dasharray="24 4"/>
<path opacity="0.18" d="M517.83 14.4522C524.807 15.4267 531.618 16.5703 538.256 17.8705C544.879 19.2185 551.302 20.7461 557.544 22.4591C563.752 24.2457 569.767 26.2243 575.572 28.4112C581.33 30.6879 586.89 33.1663 592.231 35.85C597.531 38.6361 602.619 41.6399 607.49 44.8396C614.653 49.893 627.967 61.1667 634.17 67.3507C638.262 71.6412 642.217 76.1095 646.056 80.7518C649.944 85.4718 653.756 90.3774 657.518 95.4457C661.384 100.587 665.251 105.896 669.135 111.357C673.175 116.885 677.29 122.583 681.498 128.423C685.919 134.318 690.471 140.368 695.171 146.546C700.105 152.784 705.2 159.144 710.444 165.633C715.913 172.138 721.505 178.753 727.208 185.454C733.049 192.144 738.933 198.9 744.806 205.695C750.674 212.435 756.418 219.17 761.963 225.906C767.33 232.506 772.358 239.054 776.981 245.522C781.23 251.814 784.94 257.985 788.043 264.024C791.61 272.669 794.503 288.884 793.868 296.466C792.068 303.684 786.141 317.697 782.7 324.711C779.765 331.919 776.411 347.475 776.622 356.023C777.814 362.058 779.69 368.384 782.237 375.017C785.545 381.86 789.36 388.961 793.58 396.278C798.167 403.696 802.823 411.23 807.335 418.824C811.649 426.348 815.417 433.811 818.439 441.152C820.707 448.254 821.923 455.143 821.951 461.776C820.929 468.08 818.663 474.112 815.175 479.868C810.775 485.358 805.381 490.642 799.174 495.783C792.604 500.814 785.672 505.83 778.651 510.934C772.006 516.141 765.824 521.51 760.297 527.097C755.717 532.972 752.044 539.131 749.302 545.594C747.643 552.385 746.838 559.455 746.781 566.752C747.486 574.29 748.587 581.969 749.889 589.709C751.351 597.507 752.59 605.249 753.386 612.867C753.751 620.354 753.328 627.613 752.006 634.6C749.861 641.338 746.679 647.771 742.457 653.88C737.354 659.721 731.307 665.266 724.404 670.531C716.879 675.608 708.751 680.47 700.181 685.168C691.404 689.792 682.494 694.334 673.593 698.816C664.92 703.336 656.504 707.871 648.475 712.439C640.955 717.12 633.945 721.841 627.472 726.62C621.629 731.526 616.343 736.456 611.557 741.39C607.352 746.406 603.56 751.37 600.098 756.246C595.597 763.482 587.489 776.866 583.423 782.802C579.148 788.153 569.054 796.641 563.084 799.691C556.414 801.945 541.075 804.017 532.498 803.874C526.495 803.477 520.267 802.719 513.856 801.634C507.294 800.43 500.603 798.957 493.802 797.231C486.907 795.466 479.951 793.527 472.949 791.427C465.888 789.382 458.81 787.259 451.733 785.063C444.599 783.017 437.485 780.977 430.382 778.972C423.233 777.182 416.097 775.491 408.967 773.917C401.785 772.619 394.61 771.469 387.424 770.494C380.181 769.847 372.924 769.383 365.64 769.11C358.299 769.164 350.929 769.418 343.538 769.844C336.08 770.563 328.604 771.443 321.109 772.454C313.557 773.687 305.988 775.01 298.433 776.358C290.841 777.861 283.264 779.317 275.729 780.702C268.188 782.107 260.803 783.339 253.568 784.355C246.365 785.266 239.343 785.887 232.515 786.18C225.745 786.282 219.185 785.998 212.852 785.313C206.603 784.35 200.579 782.953 194.793 781.117C189.093 778.962 183.633 776.358 178.412 773.313C173.279 769.94 168.372 766.134 163.693 761.917C159.093 757.409 154.693 752.514 150.508 747.255C146.354 741.754 142.391 735.935 138.578 729.828C134.785 723.549 131.131 717.019 127.601 710.287C124.04 703.451 120.582 696.447 117.193 689.319C113.745 682.141 110.353 674.886 107 667.57C103.559 660.269 100.133 652.951 96.7195 645.627C93.2035 638.366 89.6913 631.127 86.1741 623.939C82.5552 616.845 78.938 609.815 75.3388 602.863C71.6511 596.03 67.9911 589.279 64.3681 582.613C60.6892 576.097 57.0857 569.676 53.5634 563.333C50.0235 557.151 46.603 551.058 43.3145 545.046C40.0553 539.179 36.9568 533.403 34.0468 527.694C31.1785 522.124 28.5113 516.614 26.0508 511.146C22.5588 503.15 16.689 487.413 14.2903 479.602C12.0897 471.862 8.45908 456.217 6.97072 448.264C5.51513 440.238 3.04963 423.713 2.04929 415.218C1.35001 409.49 0.778328 403.685 0.333361 397.772C-0.140318 391.85 -0.464362 385.848 -0.613832 379.753C-0.772873 373.655 -0.743991 367.489 -0.505157 361.25C-0.244284 355.008 0.230319 348.715 0.92445 342.353C1.676 336.009 2.65376 329.607 3.86438 323.161C5.12576 316.72 6.61043 310.232 8.32798 303.7C10.0809 297.188 12.06 290.62 14.2567 284.023C16.4658 277.42 18.85 270.86 21.4095 264.342C23.9498 257.818 26.6336 251.338 29.4544 244.889C32.2435 238.44 35.1666 232.033 38.1921 225.666C41.1765 219.298 44.2661 212.962 47.4522 206.686C50.6001 200.398 53.8475 194.162 57.2106 187.992C60.5325 181.82 63.9701 175.714 67.5397 169.69C71.1035 163.686 74.8117 157.756 78.6748 151.936C82.5638 146.134 86.6363 140.451 90.8732 134.88C95.1714 129.348 99.6502 123.945 104.307 118.678C109.044 113.458 113.946 108.381 119.004 103.445C124.12 98.5584 129.38 93.8197 134.761 89.2326C140.149 84.6896 145.637 80.302 151.195 76.0612C156.713 71.8499 162.276 67.7988 167.866 63.9019C173.374 60.0325 178.88 56.3088 184.378 52.7498C189.763 49.2192 195.123 45.838 200.463 42.6281C205.687 39.4563 210.883 36.4434 216.069 33.6048C223.699 29.4902 238.861 22.2444 246.478 19.1392C254.093 16.2841 269.693 11.6266 277.723 9.81657C285.92 8.24553 302.948 6.04765 311.781 5.37963C317.794 4.98569 323.908 4.73761 330.128 4.62583C336.429 4.48649 342.825 4.48053 349.313 4.58594C355.882 4.63217 362.523 4.78395 369.24 5.03172C376.024 5.19537 382.876 5.44255 389.778 5.76744C396.738 6.00532 403.751 6.31134 410.787 6.67682C417.881 6.95529 425.001 7.28363 432.13 7.68767C439.301 7.98932 446.489 8.36958 453.657 8.81682C460.871 9.18373 468.058 9.63676 475.229 10.1788C482.417 10.6635 489.573 11.2534 496.673 11.962C503.785 12.6638 510.84 13.4843 517.82 14.4493" stroke="url(#paint5_linear_4_596)" stroke-width="2.5" stroke-linecap="round" stroke-dasharray="8 12"/>
<path opacity="0.46" d="M527.857 36.0726C534.39 37.3173 540.753 38.7023 546.954 40.2404C553.137 41.8254 559.144 43.5695 564.973 45.4819C570.767 47.4566 576.385 49.622 581.807 51.971C589.806 55.7166 604.84 64.3452 611.888 69.2223C618.752 74.4575 631.727 86.1002 637.919 92.4945C642.042 96.9228 646.084 101.545 650.062 106.367C654.104 111.277 658.127 116.382 662.135 121.674C666.251 127.048 670.393 132.613 674.59 138.347C678.913 144.17 683.308 150.148 687.789 156.296C692.42 162.499 697.141 168.863 701.953 175.357C706.91 181.893 711.929 188.548 717.017 195.303C722.188 202.067 727.366 208.898 732.52 215.795C737.659 222.644 742.697 229.508 747.577 236.368C752.32 243.134 756.8 249.836 760.958 256.483C764.847 262.967 768.318 269.34 771.306 275.577C774.927 284.552 778.671 301.351 778.743 309.168C777.704 316.533 773.006 330.5 769.792 337.287C766.619 344.079 761.271 358.308 759.724 366.008C759.479 371.416 759.773 377.098 760.637 383.086C762.233 389.311 764.384 395.826 767.06 402.62C770.307 409.603 773.888 416.805 777.692 424.185C781.693 431.605 785.604 439.099 789.259 446.594C792.62 453.96 795.383 461.212 797.396 468.273C798.678 475.065 798.971 481.588 798.191 487.813C796.486 493.685 793.677 499.258 789.795 504.531C785.144 509.521 779.635 514.291 773.426 518.909C766.92 523.407 760.107 527.899 753.195 532.461C746.623 537.138 740.438 541.978 734.801 547.042C729.992 552.4 725.943 558.07 722.7 564.037C720.415 570.356 718.902 576.982 718.051 583.862C717.932 591.011 718.227 598.313 718.771 605.718C719.555 613.221 720.246 620.691 720.646 628.053C720.774 635.314 720.314 642.349 719.15 649.124C717.333 655.648 714.634 661.847 711.044 667.687C706.685 673.242 701.435 678.438 695.37 683.301C688.671 687.92 681.319 692.256 673.434 696.332C665.215 700.274 656.71 704.036 648.061 707.67C639.435 711.271 630.892 714.816 622.535 718.324C614.514 721.902 606.844 725.481 599.581 729.083C592.831 732.798 586.545 736.525 580.743 740.27C573.062 746.02 560.454 757.361 555.23 762.779C550.647 767.986 542.099 777.103 537.79 780.844C528.304 786.142 511.33 789.694 504.592 789.354C497.344 788.432 481.49 784.893 472.994 782.413C467.119 780.655 461.112 778.708 454.986 776.622C448.738 774.576 442.404 772.445 435.986 770.252C429.457 768.188 422.874 766.125 416.234 764.073C409.505 762.234 402.721 760.459 395.901 758.779C388.992 757.342 382.044 756.04 375.056 754.873C367.984 753.994 360.876 753.272 353.73 752.708C346.509 752.435 339.252 752.319 331.975 752.345C324.622 752.631 317.257 753.041 309.885 753.554C302.446 754.277 295.022 755.049 287.616 755.858C280.168 756.781 272.765 757.667 265.428 758.491C258.074 759.331 250.884 760.018 243.879 760.518C236.906 760.933 230.121 761.098 223.553 760.991C217.032 760.699 210.745 760.088 204.685 759.124C198.702 757.921 192.952 756.347 187.454 754.375C182.026 752.13 176.85 749.488 171.905 746.452C167.044 743.127 162.415 739.407 158.009 735.312C153.662 730.94 149.519 726.217 145.577 721.152C141.671 715.844 137.939 710.239 134.354 704.347C130.795 698.272 127.36 691.944 124.033 685.412C120.695 678.736 117.45 671.893 114.283 664.897C111.068 657.83 107.907 650.644 104.786 643.378C101.609 636.09 98.4592 628.76 95.3322 621.395C92.141 614.06 88.9626 606.718 85.8184 599.401C82.602 592.163 79.4162 584.957 76.2764 577.801C73.0823 570.763 69.9528 563.781 66.8965 556.89C63.8139 550.127 60.8267 543.453 57.9536 536.875C55.0919 530.439 52.3664 524.096 49.7832 517.858C47.2558 511.759 44.8835 505.759 42.6979 499.86C39.5941 491.246 34.4102 474.566 32.3252 466.455C30.4565 458.509 27.5396 442.792 26.4265 434.965C25.3579 427.133 23.6539 411.276 22.9665 403.19C22.2565 395.021 21.1968 378.283 20.8977 369.722C20.7003 363.98 20.6443 358.173 20.7482 352.307C20.8521 346.442 21.1349 340.525 21.6151 334.563C22.1364 328.606 22.8739 322.611 23.8431 316.596C24.8626 310.588 26.1232 304.562 27.6317 298.5C29.193 292.468 30.9953 286.418 33.0421 280.341C35.1358 274.281 37.4612 268.2 39.9959 262.1C42.5588 256.01 45.2881 249.961 48.1769 243.97C51.0376 237.969 54.0425 232.011 57.1565 226.103C60.2271 220.168 63.394 214.291 66.6547 208.448C69.8463 202.59 73.1283 196.776 76.4877 191.012C79.7781 185.233 83.1554 179.507 86.6127 173.854C90.029 168.196 93.5569 162.611 97.1836 157.106C100.803 151.619 104.55 146.221 108.436 140.938C112.342 135.685 116.416 130.557 120.647 125.551C124.934 120.597 129.402 115.785 134.035 111.108C138.743 106.513 143.616 102.052 148.65 97.7574C153.746 93.5282 158.99 89.4492 164.351 85.5415C169.745 81.6886 175.242 77.9908 180.82 74.4505C186.377 70.9665 191.986 67.6297 197.625 64.4425C203.197 61.2944 208.776 58.2983 214.354 55.4509C219.827 52.6287 225.276 49.9577 230.689 47.4436C238.622 43.7586 254.12 37.2122 261.717 34.3518C269.15 31.6762 283.923 27.1858 291.319 25.3918C298.712 23.778 313.782 21.4324 321.509 20.6769C329.381 20.081 345.654 19.6175 354.07 19.7124C359.779 19.7798 365.591 19.9707 371.488 20.2781C377.46 20.5277 383.524 20.8751 389.657 21.3227C395.868 21.7032 402.15 22.1523 408.492 22.6983C414.91 23.1548 421.376 23.6824 427.891 24.2812C434.468 24.7965 441.075 25.376 447.712 26.0197C454.395 26.5952 461.098 27.2315 467.793 27.9498C474.537 28.5905 481.259 29.3191 487.969 30.1391C494.697 30.9122 501.399 31.7826 508.047 32.7715C514.715 33.7357 521.312 34.8338 527.848 36.0691" stroke="url(#paint6_linear_4_596)" stroke-width="2.5" stroke-linecap="round" stroke-dasharray="21 15"/>
<path opacity="0.47" d="M537.439 58.2194C543.548 59.6979 549.511 61.3094 555.331 63.0761C561.138 64.8703 566.797 66.829 572.308 68.9521C580.454 72.3132 595.946 80.0396 603.286 84.4456C610.473 89.1775 624.155 99.8013 630.713 105.699C635.05 109.809 639.309 114.124 643.493 118.635C647.719 123.252 651.883 128.083 656.022 133.099C660.207 138.233 664.388 143.551 668.57 149.066C672.824 154.666 677.093 160.459 681.388 166.416C685.767 172.453 690.173 178.655 694.601 185.008C699.116 191.41 703.642 197.937 708.17 204.585C712.734 211.249 717.268 218.008 721.746 224.82C726.196 231.62 730.54 238.438 734.733 245.278C738.805 252.021 742.665 258.748 746.249 265.409C749.624 271.947 752.654 278.377 755.302 284.706C757.65 290.849 759.551 296.841 760.987 302.673C762.352 311.039 762.14 326.616 760.654 333.867C758.452 340.784 752.586 354.164 749.372 360.825C746.537 367.64 742.531 382.259 741.791 390.25C742.044 395.893 742.776 401.811 743.994 408.017C745.798 414.457 748.031 421.161 750.63 428.102C753.632 435.196 756.825 442.451 760.069 449.815C763.376 457.184 766.477 464.551 769.234 471.855C771.638 478.994 773.432 485.954 774.489 492.679C774.859 499.103 774.329 505.212 772.829 510.995C770.523 516.426 767.25 521.522 763.065 526.307C758.229 530.808 752.661 535.087 746.489 539.201C740.092 543.205 733.42 547.188 726.657 551.229C720.179 555.394 714.035 559.717 708.346 564.248C703.362 569.088 699.025 574.222 695.376 579.655C692.565 585.466 690.414 591.565 688.883 597.945C688.024 604.608 687.565 611.457 687.403 618.424C687.53 625.529 687.656 632.612 687.635 639.63C687.472 646.575 686.891 653.327 685.772 659.811C684.177 666.087 681.875 672.033 678.819 677.606C675.117 682.885 670.642 687.784 665.418 692.3C659.587 696.53 653.099 700.419 646.065 703.981C638.618 707.341 630.79 710.448 622.696 713.34C614.476 716.145 606.182 718.797 597.931 721.348C589.823 723.896 581.92 726.402 574.283 728.872C566.995 731.418 560.073 733.949 553.545 736.478C544.632 740.421 529.488 748.287 523.126 752.11C512.751 759.201 499.257 767.711 494.936 769.534C485.699 771.371 469.841 770.578 463.735 769.144C457.207 767.351 442.984 762.613 435.334 759.817C430.038 757.952 424.589 755.986 419.006 753.952C413.277 752.028 407.43 750.075 401.481 748.131C395.393 746.356 389.199 744.622 382.914 742.947C376.511 741.493 370.023 740.132 363.46 738.87C356.774 737.838 350.028 736.943 343.225 736.155C336.301 735.619 329.338 735.196 322.34 734.879C315.251 734.795 308.135 734.797 301.001 734.868C293.803 735.107 286.608 735.391 279.441 735.687C272.22 736.08 265.047 736.439 257.928 736.724C250.801 737.026 243.842 737.195 237.053 737.198C230.292 737.138 223.73 736.847 217.366 736.326C211.058 735.655 204.971 734.7 199.116 733.441C190.543 731.083 174.688 724.311 167.39 719.858C162.69 716.528 158.204 712.834 153.919 708.802C149.711 704.52 145.701 699.91 141.872 694.986C138.098 689.835 134.484 684.393 131.021 678.68C127.585 672.782 124.284 666.648 121.096 660.28C117.906 653.791 114.823 647.108 111.83 640.269C108.815 633.332 105.869 626.284 102.994 619.125C100.09 611.931 97.2411 604.664 94.4525 597.357C91.6191 590.052 88.8568 582.735 86.1392 575.415C83.4066 568.155 80.7383 560.922 78.1432 553.722C75.5488 546.62 73.034 539.586 70.6212 532.617C68.2325 525.769 65.9469 519.009 63.8051 512.345C61.6926 505.814 59.7331 499.382 57.9225 493.058C56.1595 486.876 54.5626 480.788 53.137 474.808C51.1513 466.062 48.0897 449.186 46.9839 440.999C46.0305 432.988 44.7223 417.194 44.3102 409.343C43.8952 401.523 43.3262 385.736 43.1475 377.725C42.9076 369.654 42.7121 353.212 42.8207 344.868C42.9928 336.453 44.0761 319.456 45.0829 310.904C46.3549 302.37 50.1357 285.318 52.668 276.821C54.5162 271.19 56.6152 265.56 58.9386 259.94C61.3302 254.339 63.9462 248.749 66.7776 243.165C69.6313 237.58 72.6447 232.055 75.8008 226.602C78.9426 221.132 82.1943 215.711 85.5429 210.342C88.8364 204.949 92.2136 199.615 95.655 194.309C99.0242 188.993 102.454 183.714 105.939 178.482C109.352 173.24 112.822 168.044 116.358 162.921C119.835 157.784 123.4 152.717 127.043 147.75C130.672 142.788 134.401 137.923 138.252 133.178C142.123 128.463 146.134 123.875 150.279 119.432C154.488 115.04 158.853 110.792 163.379 106.702C167.962 102.679 172.723 98.8229 177.628 95.1379C182.599 91.5256 187.718 88.0759 192.962 84.8121C198.25 81.5999 203.645 78.5657 209.121 75.6974C214.617 72.8819 220.166 70.2203 225.751 67.7271C231.311 65.2665 236.887 62.9662 242.458 60.8051C250.688 57.6774 266.875 52.1437 274.78 49.736C282.481 47.4688 297.516 43.625 304.859 42.0525C312.07 40.6078 326.372 38.4187 333.512 37.6852C340.658 37.0634 355.164 36.4803 362.572 36.5076C370.11 36.6133 385.617 37.362 393.601 37.9684C401.771 38.6011 418.582 40.2359 427.222 41.2158C433.057 41.8219 438.968 42.5046 444.923 43.2612C450.945 43.9382 457.008 44.6981 463.105 45.5279C469.253 46.2924 475.427 47.1227 481.614 48.0463C487.843 48.9007 494.072 49.8535 500.288 50.8876C506.538 51.8931 512.766 52.9982 518.956 54.2173C525.166 55.4129 531.33 56.7408 537.43 58.2154" stroke="url(#paint7_linear_4_596)" stroke-width="2.5" stroke-linecap="round" stroke-dasharray="18 15"/>
<path opacity="0.21" d="M547.907 81.7045C553.62 83.3989 559.238 85.2358 564.738 87.215C572.91 90.3173 588.625 97.4031 596.169 101.431C601.131 104.248 605.985 107.255 610.722 110.45C620.148 117.108 629.17 124.581 637.842 132.852C646.534 141.526 654.974 151.026 663.244 161.302C671.618 171.968 679.884 183.354 688.038 195.401C696.28 207.672 704.344 220.447 712.111 233.586C719.681 246.671 726.651 259.877 732.767 272.996C738.202 285.69 742.379 298.036 745.056 309.843C746.665 320.972 746.632 331.469 744.967 341.314C742.55 350.608 738.991 359.501 734.704 368.215C730.9 376.994 727.398 386.129 724.727 395.9C723.92 406.462 724.595 418.037 726.842 430.646C730.926 444.078 735.872 458.24 740.995 472.761C745.909 487.12 749.252 500.994 750.155 513.929C749.065 522.754 741.677 538.159 735.428 544.775C730.476 548.797 724.895 552.6 718.819 556.229C712.547 559.759 706.056 563.256 699.461 566.801C693.13 570.469 687.062 574.282 681.381 578.281C676.293 582.593 671.739 587.177 667.774 592.06C664.523 597.305 661.863 602.842 659.743 608.641C658.225 614.757 657.112 621.069 656.294 627.508C655.535 640.821 654.576 653.953 652.531 666.376C649.163 678.093 643.402 688.402 635.082 697.15C624.609 704.68 611.915 710.754 597.575 715.565C582.353 719.726 566.726 723.164 551.352 726.103C536.783 729.159 523.324 732.062 511.211 734.831C500.604 737.973 491.344 740.914 483.262 743.501C476.298 746.252 470.013 748.373 464.082 749.709C458.524 750.91 452.816 751.147 446.788 750.403C440.529 749.452 433.664 747.575 426.169 744.884C418.151 742.208 409.43 738.972 400.073 735.334C390.122 732.089 379.555 728.756 368.442 725.459C356.778 722.891 344.626 720.557 332.1 718.516C325.651 717.805 319.135 717.16 312.547 716.591C305.855 716.205 299.126 715.867 292.357 715.565C285.52 715.419 278.661 715.273 271.806 715.118C264.919 715.048 258.037 714.924 251.21 714.716C244.368 714.534 237.676 714.215 231.14 713.763C224.628 713.243 218.296 712.524 212.148 711.596C206.051 710.547 200.152 709.241 194.466 707.672C188.852 705.938 183.445 703.906 178.251 701.566C168.123 696.29 158.853 689.723 150.392 681.919C142.241 673.239 134.814 663.38 128.029 652.457C121.437 640.846 115.375 628.371 109.782 615.192C104.25 601.652 99.1011 587.668 94.3209 573.399C89.5721 559.136 85.1947 544.825 81.2415 530.63C77.3935 516.735 74.0311 503.098 71.2342 489.827C68.6086 477.014 66.5838 464.607 65.1957 452.625C63.9207 441.082 63.2249 429.879 63.0502 418.975C62.7932 408.32 62.902 397.806 63.3279 387.353C63.4315 376.938 63.728 366.453 64.2442 355.866C64.3809 345.21 64.7958 334.403 65.5826 323.505C66.2264 312.58 67.4609 301.618 69.3972 290.688C71.0593 282.546 75.6075 266.46 78.5203 258.528C81.7992 250.694 89.6124 235.225 94.1153 227.586C97.2095 222.518 100.446 217.523 103.817 212.595C107.165 207.668 110.62 202.795 114.151 197.971C117.624 193.13 121.154 188.329 124.734 183.586C128.242 178.807 131.781 174.078 135.364 169.393C142.273 159.938 149.367 150.734 156.678 141.854C163.851 132.981 171.409 124.564 179.411 116.685C187.586 108.996 196.347 101.964 205.653 95.6468C215.256 89.6044 225.369 84.2811 235.902 79.6987C246.549 75.3317 257.434 71.6237 268.407 68.556C279.242 65.5633 289.983 63.1289 300.565 61.2302C310.824 59.28 320.87 57.8157 330.707 56.851C340.231 55.7499 349.627 55.1219 358.957 54.9765C368.128 54.6601 377.357 54.8002 386.691 55.3972C396.053 55.7842 405.641 56.5887 415.458 57.8018C425.442 58.7522 435.701 60.0667 446.204 61.7184C456.933 63.0809 467.9 64.7671 479.04 66.7764C487.514 68.1814 504.67 71.3551 513.307 73.1459C519.086 74.3354 524.873 75.6412 530.632 77.0676C536.414 78.4718 542.168 80.0189 547.894 81.7089" stroke="url(#paint8_linear_4_596)" stroke-width="2.5" stroke-linecap="round" stroke-dasharray="25 8"/>
<path opacity="0.96" d="M559.457 107.15C570.2 110.968 580.606 115.4 590.645 120.44C600.599 125.685 610.183 131.641 619.391 138.338C628.517 145.335 637.295 153.124 645.757 161.691C654.156 170.602 662.289 180.285 670.147 190.676C677.967 201.37 685.5 212.694 692.693 224.538C699.743 236.507 706.317 248.835 712.293 261.334C717.835 273.683 722.515 285.981 726.148 298.047C729.032 309.653 730.632 320.819 730.846 331.442C730.255 341.5 728.352 351.011 725.278 360.046C721.942 368.776 717.994 377.345 713.836 385.977C710.508 394.932 707.762 404.436 705.976 414.676C705.885 425.78 707.054 437.842 709.387 450.805C713.016 464.422 717.041 478.513 720.804 492.695C724.057 506.521 725.64 519.636 724.884 531.66C721.951 542.376 716.103 551.676 707.419 559.606C697.049 566.537 684.994 572.784 672.134 578.862C660.134 585.431 649.369 592.699 640.404 600.951C633.851 610.626 629.189 621.327 626.001 632.774C624.157 644.995 622.429 657.135 620.09 668.696C616.943 679.738 611.982 689.464 604.97 697.666C596.166 704.692 585.334 710.136 572.861 714.146C559.297 717.309 544.983 719.476 530.485 720.888C516.264 722.183 502.689 723.127 490.084 723.838C478.588 724.874 468.284 725.75 459.133 726.42C451.095 727.406 443.914 728.035 437.402 728.176C431.459 728.452 425.745 728.098 420.038 727.041C414.341 726.025 408.326 724.324 401.876 721.963C395.07 719.754 387.66 717.052 379.648 713.974C371.085 711.281 361.885 708.412 352.065 705.493C341.69 703.165 330.741 700.929 319.317 698.809C307.407 697.344 295.122 695.983 282.574 694.677C269.722 693.831 256.767 692.843 243.845 691.562C230.885 690.327 218.446 688.517 206.61 685.994C194.992 683.078 184.096 679.205 173.963 674.307C164.165 668.736 155.164 662.021 146.926 654.2C139.046 645.649 131.877 636.021 125.394 625.438C119.179 614.259 113.555 602.267 108.503 589.636C103.642 576.677 99.2892 563.286 95.4414 549.645C91.7699 535.98 88.5988 522.272 85.9674 508.671C83.5221 495.307 81.6387 482.19 80.3285 469.42C79.2093 457.017 78.6431 444.995 78.6436 433.351C78.6926 422.06 79.1839 411.063 80.0779 400.347C80.7917 389.781 81.7523 379.348 82.9193 368.978C83.702 358.591 84.6266 348.16 85.6844 337.68C86.3946 327.1 87.3497 316.478 88.6474 305.825C89.8372 295.179 91.6056 284.593 94.0411 274.153C96.7009 263.846 100.216 253.76 104.637 243.927C109.391 234.277 115.018 224.859 121.486 215.667C128.065 206.541 135.108 197.732 142.468 189.212C149.613 180.567 156.891 172.128 164.246 163.895C171.266 155.501 178.373 147.355 185.598 139.522C192.646 131.654 199.988 124.236 207.661 117.36C215.449 110.644 223.731 104.588 232.486 99.2482C241.528 94.1922 251.057 89.8853 260.995 86.3269C271.127 83.0099 281.528 80.3829 292.091 78.4075C302.617 76.5371 313.133 75.2174 323.552 74.4202C333.751 73.5636 343.773 73.1481 353.592 73.1584C363.148 73.0035 372.532 73.2226 381.769 73.831C390.843 74.2046 399.871 74.9336 408.901 76.0348C417.912 76.8704 427.031 78.0581 436.288 79.5821C445.646 80.8169 455.214 82.3839 464.986 84.2779C474.901 85.8856 485.041 87.8218 495.36 90.106C505.826 92.1398 516.431 94.5683 527.117 97.4144C537.883 100.122 548.682 103.348 559.449 107.145" stroke="url(#paint9_linear_4_596)" stroke-width="2.5" stroke-linecap="round" stroke-dasharray="17 1"/>
<path opacity="0.67" d="M571.197 134.561C581.305 138.779 591.128 143.588 600.631 149.002C610.054 154.59 619.136 160.852 627.865 167.804C636.489 175.023 644.744 182.957 652.641 191.59C660.404 200.495 667.791 210.073 674.764 220.218C681.551 230.587 687.872 241.438 693.635 252.639C699.08 263.867 703.839 275.276 707.783 286.717C711.214 297.937 713.66 308.993 715.011 319.727C715.71 330.05 715.259 339.954 713.662 349.394C711.563 358.452 708.549 367.152 704.816 375.577C701.198 383.994 697.399 392.482 693.727 401.249C691.052 410.559 689.074 420.515 688.004 431.257C688.373 442.85 689.685 455.264 691.764 468.384C694.665 481.966 697.549 495.754 699.873 509.372C701.484 522.455 701.428 534.667 699.221 545.672C695.125 555.381 688.533 563.678 679.567 570.631C669.268 576.683 657.571 582.056 645.205 587.223C633.561 592.858 622.923 599.093 613.785 606.197C606.664 614.657 601.189 624.072 597.065 634.219C594.264 645.213 591.807 656.231 589.106 666.823C586.014 677.081 581.652 686.18 575.745 693.864C568.413 700.477 559.357 705.495 548.797 708.981C537.098 711.527 524.464 712.861 511.354 713.216C498.105 713.238 485.097 712.699 472.644 711.762C460.879 711.018 450.035 710.084 440.153 708.986C431.19 708.26 423.113 707.357 415.8 706.193C409.127 705.348 402.89 704.157 396.913 702.538C391.125 701.178 385.268 699.363 379.208 697.112C372.957 695.13 366.271 692.774 359.097 690.104C351.503 687.828 343.303 685.363 334.542 682.765C325.259 680.697 315.406 678.584 305.036 676.451C294.217 674.848 282.965 673.209 271.392 671.476C259.538 670.108 247.513 668.494 235.429 666.516C223.318 664.58 211.62 662.079 200.452 658.909C189.475 655.434 179.134 651.096 169.483 645.849C160.185 640.056 151.619 633.273 143.789 625.513C136.358 617.155 129.648 607.86 123.651 597.729C118.004 587.111 113.028 575.774 108.699 563.883C104.683 551.721 101.269 539.178 98.4738 526.411C95.9585 513.638 94.0256 500.822 92.7029 488.099C91.6076 475.577 91.0919 463.248 91.1557 451.222C91.3638 439.485 92.071 428.044 93.2468 416.929C94.381 406.037 95.8729 395.385 97.631 384.946C99.1284 374.573 100.795 364.289 102.564 354.05C103.945 343.744 105.415 333.413 106.981 323.063C108.235 312.624 109.713 302.19 111.523 291.834C113.273 281.498 115.561 271.328 118.5 261.388C121.681 251.646 125.652 242.214 130.494 233.135C135.647 224.275 141.623 215.748 148.367 207.528C155.22 199.382 162.485 191.606 169.987 184.145C177.297 176.555 184.687 169.188 192.083 162.029C199.152 154.675 206.231 147.557 213.336 140.744C220.235 133.843 227.315 127.374 234.627 121.421C241.984 115.581 249.737 110.391 257.881 105.895C266.272 101.659 275.095 98.1801 284.307 95.4531C293.757 92.9814 303.509 91.2281 313.457 90.135C323.492 89.1833 333.588 88.7891 343.672 88.9163C353.648 89.0074 363.522 89.5228 373.235 90.4238C382.77 91.1582 392.152 92.2116 401.365 93.5729C410.443 94.6872 419.418 96.0816 428.334 97.7617C437.212 99.1395 446.117 100.8 455.064 102.741C464.08 104.379 473.21 106.298 482.487 108.519C491.872 110.452 501.415 112.706 511.099 115.307C520.906 117.689 530.84 120.457 540.849 123.671C550.932 126.755 561.063 130.363 571.188 134.556" stroke="url(#paint10_linear_4_596)" stroke-width="2.5" stroke-linecap="round" stroke-dasharray="21 11"/>
<path opacity="0.25" d="M581.495 163.195C590.969 167.759 600.149 172.878 609.006 178.555C617.768 184.361 626.179 190.779 634.196 197.801C642.068 205.015 649.52 212.852 656.517 221.259C663.318 229.857 669.614 238.976 675.356 248.528C680.821 258.198 685.652 268.177 689.775 278.362C693.507 288.501 696.433 298.696 698.459 308.787C699.994 318.683 700.569 328.355 700.138 337.717C699.245 346.794 697.408 355.546 694.712 363.974C691.847 372.262 688.418 380.4 684.613 388.504C681.197 396.84 677.864 405.464 674.872 414.534C672.855 424.252 671.514 434.67 670.918 445.826C671.434 457.734 672.575 470.29 674.111 483.319C676.059 496.598 677.7 509.82 678.579 522.642C678.645 534.812 677.123 545.982 673.674 555.872C668.633 564.534 661.501 571.817 652.412 577.809C642.277 583.011 631.015 587.548 619.198 591.842C607.981 596.602 597.6 601.831 588.431 607.813C580.943 615.052 574.862 623.167 570.004 631.967C566.378 641.66 563.253 651.469 560.173 660.986C557.011 670.379 553.041 678.785 547.992 685.949C541.902 692.202 534.437 696.939 525.667 700.152C515.849 702.397 505.068 703.312 493.65 703.096C481.819 702.365 469.888 700.871 458.177 698.803C446.763 696.759 435.929 694.426 425.802 691.888C416.314 689.682 407.574 687.365 399.545 684.92C392.086 682.882 385.142 680.693 378.586 678.321C372.289 676.321 366.111 674.097 359.92 671.625C353.653 669.535 347.147 667.213 340.326 664.679C333.184 662.554 325.584 660.27 317.507 657.84C309.01 655.881 299.997 653.809 290.519 651.623C280.639 649.886 270.351 647.992 259.739 645.914C248.873 644.121 237.814 642.02 226.667 639.488C215.498 637.002 204.681 633.967 194.306 630.314C184.134 626.426 174.532 621.766 165.564 616.318C156.944 610.457 149.032 603.727 141.843 596.189C135.058 588.167 129.021 579.37 123.713 569.857C118.83 559.963 114.657 549.478 111.198 538.53C108.116 527.365 105.719 515.89 103.999 504.25C102.594 492.573 101.83 480.878 101.689 469.253C101.78 457.754 102.437 446.418 103.632 435.314C104.901 424.379 106.607 413.661 108.691 403.19C110.672 392.805 112.89 382.587 115.298 372.499C117.402 362.383 119.606 352.317 121.856 342.272C123.74 332.115 125.672 321.944 127.709 311.801C129.475 301.567 131.459 291.41 133.763 281.395C136.06 271.437 138.879 261.735 142.3 252.363C145.967 243.214 150.38 234.453 155.564 226.15C161.065 218.073 167.308 210.408 174.234 203.132C181.278 195.933 188.658 189.152 196.229 182.714C203.608 176.133 211.029 169.795 218.423 163.675C225.478 157.325 232.486 151.201 239.454 145.362C246.184 139.392 252.996 133.81 259.93 128.697C266.874 123.654 274.086 119.202 281.591 115.422C289.298 111.858 297.378 109.026 305.79 106.934C314.458 105.099 323.426 103.979 332.616 103.528C341.987 103.251 351.48 103.543 361.027 104.377C370.604 105.221 380.146 106.477 389.592 108.125C398.983 109.631 408.25 111.432 417.385 113.508C426.451 115.344 435.405 117.41 444.271 119.71C453.11 121.714 461.922 123.935 470.723 126.386C479.568 128.532 488.461 130.928 497.418 133.571C506.466 135.946 515.604 138.614 524.824 141.607C534.144 144.4 543.536 147.562 552.976 151.16C562.477 154.641 571.993 158.635 581.487 163.189" stroke="url(#paint11_linear_4_596)" stroke-width="2.5" stroke-linecap="round" stroke-dasharray="22 16"/>
<path opacity="0.16" d="M588.549 191.644C597.348 196.49 605.809 201.81 613.887 207.579C621.882 213.461 629.455 219.837 636.562 226.684C643.497 233.686 649.937 241.16 655.822 249.04C661.469 257.06 666.512 265.432 670.897 274.085C674.975 282.79 678.314 291.667 680.885 300.613C683.076 309.511 684.434 318.355 684.923 327.076C685.032 335.658 684.282 344.045 682.711 352.193C680.868 360.228 678.345 368.09 675.243 375.814C672.198 383.625 668.867 391.495 665.429 399.536C662.5 407.998 659.782 416.89 657.461 426.303C655.996 436.407 655.058 447.158 654.674 458.538C655.061 470.524 655.754 482.953 656.527 495.596C657.417 508.286 657.79 520.705 657.292 532.527C655.968 543.606 653.191 553.617 648.75 562.341C642.977 569.915 635.49 576.201 626.431 581.264C616.573 585.646 605.806 589.398 594.585 592.881C583.873 596.785 573.83 601.075 564.785 605.967C557.11 612.026 550.624 618.849 545.224 626.295C540.939 634.666 537.222 643.205 533.775 651.58C530.454 660.023 526.708 667.671 522.269 674.281C517.143 680.187 510.992 684.72 503.82 687.831C495.746 690.028 486.782 690.863 477.141 690.489C466.953 689.492 456.459 687.59 445.914 684.947C435.349 682.157 425.055 678.941 415.192 675.421C405.657 672.116 396.658 668.676 388.234 665.148C380.189 662.023 372.629 658.837 365.484 655.611C358.551 652.816 351.846 649.952 345.256 647.001C338.643 644.492 331.945 641.883 325.103 639.166C318.012 636.879 310.636 634.495 302.925 631.995C294.871 629.913 286.432 627.712 277.634 625.377C268.496 623.396 259.024 621.235 249.292 618.825C239.344 616.653 229.227 614.139 219.061 611.19C208.863 608.278 199 604.865 189.561 600.893C180.301 596.757 171.591 591.961 163.488 586.499C155.707 580.721 148.615 574.242 142.249 567.081C136.282 559.576 131.064 551.423 126.61 542.713C122.566 533.707 119.278 524.23 116.743 514.394C114.583 504.38 113.141 494.124 112.406 483.734C111.972 473.299 112.187 462.826 113.01 452.411C114.021 442.038 115.558 431.772 117.56 421.653C119.602 411.581 122.003 401.643 124.684 391.853C127.221 382.032 129.935 372.282 132.753 362.609C135.293 352.816 137.868 343.028 140.487 333.25C142.768 323.329 145.113 313.41 147.555 303.561C149.793 293.629 152.269 283.835 155.052 274.25C157.872 264.775 161.178 255.609 165.041 246.853C169.158 238.339 173.944 230.304 179.423 222.767C185.199 215.497 191.629 208.678 198.654 202.302C205.8 196.015 213.208 190.176 220.76 184.708C228.144 179.098 235.533 173.728 242.842 168.591C249.839 163.203 256.755 158.034 263.563 153.115C270.122 148.01 276.675 143.268 283.266 138.926C289.809 134.596 296.515 130.798 303.418 127.617C310.463 124.594 317.795 122.25 325.396 120.609C333.243 119.204 341.379 118.491 349.732 118.45C358.305 118.597 367.054 119.34 375.91 120.621C384.89 121.955 393.906 123.741 402.904 125.918C411.958 127.998 420.952 130.396 429.853 133.056C438.775 135.523 447.607 138.203 456.348 141.081C465.12 143.709 473.834 146.512 482.506 149.503C491.228 152.22 499.945 155.143 508.657 158.286C517.457 161.174 526.283 164.323 535.112 167.762C544.025 171.01 552.951 174.598 561.858 178.577C570.807 182.46 579.722 186.8 588.534 191.631" stroke="url(#paint12_linear_4_596)" stroke-width="2.5" stroke-linecap="round" stroke-dasharray="17 16"/>
<path opacity="0.82" d="M591.04 218.25C599.122 223.274 606.78 228.654 614.006 234.367C621.127 240.161 627.768 246.311 633.865 252.798C639.808 259.387 645.163 266.299 649.902 273.464C654.401 280.72 658.234 288.194 661.362 295.81C664.2 303.453 666.291 311.169 667.624 318.879C668.646 326.567 668.896 334.193 668.38 341.707C667.615 349.178 666.155 356.549 664.063 363.814C661.887 371.122 659.252 378.433 656.264 385.78C653.472 393.398 650.579 401.252 647.707 409.417C645.362 418.101 643.246 427.268 641.459 436.973C640.343 447.294 639.578 458.173 639.126 469.52C639.136 481.282 639.2 493.261 639.108 505.23C638.901 517.06 638.068 528.442 636.344 539.094C633.832 548.963 630.039 557.74 624.833 565.274C618.56 571.769 610.911 577.055 602.008 581.236C592.52 584.841 582.313 587.853 571.754 590.582C561.584 593.699 551.987 597.102 543.191 600.983C535.499 605.909 528.789 611.486 523.032 617.631C518.241 624.676 514.056 631.941 510.251 639.142C506.72 646.563 503.042 653.401 499.015 659.404C494.574 664.927 489.43 669.277 483.567 672.355C476.988 674.648 469.66 675.655 461.713 675.445C453.187 674.582 444.265 672.715 435.121 670.026C425.745 667.03 416.399 663.468 407.229 659.492C398.13 655.585 389.338 651.46 380.912 647.2C372.675 643.247 364.806 639.258 357.269 635.269C349.86 631.681 342.686 628.109 335.681 624.563C328.643 621.441 321.64 618.325 314.602 615.189C307.374 612.467 299.997 609.727 292.435 606.92C284.598 604.486 276.526 601.98 268.217 599.33C259.639 597.004 250.839 594.491 241.885 591.748C232.743 589.186 223.518 586.308 214.312 583.032C205.072 579.793 196.191 576.123 187.746 572.011C179.454 567.755 171.702 562.979 164.555 557.674C157.701 552.137 151.535 546.04 146.072 539.427C140.979 532.545 136.632 525.173 133.055 517.376C129.855 509.358 127.411 500.971 125.711 492.314C124.362 483.508 123.723 474.497 123.761 465.386C124.066 456.2 124.992 446.958 126.471 437.733C128.09 428.477 130.176 419.239 132.674 410.078C135.157 400.861 137.923 391.68 140.931 382.551C143.76 373.305 146.73 364.056 149.785 354.82C152.568 345.405 155.4 335.968 158.267 326.538C160.869 316.95 163.55 307.396 166.353 297.932C169.028 288.427 171.933 279.116 175.155 270.068C178.443 261.152 182.199 252.615 186.452 244.542C190.952 236.733 196.049 229.442 201.751 222.69C207.72 216.208 214.252 210.224 221.31 204.717C228.454 199.307 235.813 194.352 243.272 189.785C250.587 185.079 257.872 180.635 265.048 176.42C271.964 171.941 278.743 167.664 285.378 163.608C291.776 159.338 298.094 155.367 304.37 151.743C310.56 148.065 316.817 144.852 323.19 142.167C329.637 139.579 336.293 137.61 343.133 136.273C350.189 135.13 357.478 134.654 364.979 134.81C372.702 135.152 380.621 136.084 388.672 137.573C396.909 139.156 405.248 141.198 413.623 143.648C422.132 146.089 430.648 148.841 439.127 151.891C447.703 154.797 456.234 157.937 464.705 161.27C473.25 164.41 481.742 167.722 490.173 171.197C498.692 174.451 507.166 177.882 515.593 181.492C524.115 184.901 532.585 188.524 541.004 192.374C549.511 196.088 557.946 200.079 566.289 204.384C574.673 208.616 582.944 213.226 591.033 218.243" stroke="url(#paint13_linear_4_596)" stroke-width="2.5" stroke-linecap="round" stroke-dasharray="10 21"/>
<path opacity="0.29" d="M588.56 241.633C595.852 246.723 602.683 252.036 609.018 257.549C615.258 263.137 620.96 268.938 626.088 274.929C631.057 281.013 635.425 287.272 639.136 293.676C642.647 300.144 645.488 306.713 647.634 313.34C649.545 320.008 650.761 326.706 651.278 333.37C651.589 340.076 651.228 346.749 650.246 353.385C649.148 360.087 647.505 366.803 645.415 373.538C643.36 380.472 641.003 387.536 638.441 394.79C636.14 402.43 633.805 410.4 631.533 418.748C629.708 427.623 628.056 436.979 626.607 446.787C625.618 457.109 624.792 467.827 624.061 478.823C623.541 490.048 622.872 501.273 621.878 512.296C620.64 523.04 618.731 533.206 615.976 542.548C612.506 551.133 607.96 558.644 602.241 564.979C595.686 570.411 588.041 574.754 579.436 578.091C570.396 580.973 560.804 583.303 550.94 585.34C541.395 587.735 532.309 590.318 523.875 593.279C516.297 597.151 509.533 601.563 503.579 606.466C498.441 612.236 493.896 618.233 489.788 624.261C486.035 630.627 482.333 636.593 478.506 641.938C474.506 647.008 470.089 651.127 465.189 654.181C459.788 656.622 453.824 657.894 447.343 658.05C440.356 657.586 432.954 656.114 425.252 653.761C417.212 651.027 409.048 647.631 400.87 643.703C392.574 639.692 384.382 635.367 376.368 630.823C368.362 626.449 360.557 621.983 352.994 617.498C345.426 613.318 338.041 609.172 330.811 605.061C323.516 601.322 316.29 597.643 309.098 594C301.744 590.726 294.345 587.479 286.877 584.229C279.176 581.303 271.371 578.337 263.47 575.298C255.347 572.504 247.13 569.579 238.863 566.469C230.442 563.515 222.052 560.301 213.752 556.771C205.423 553.255 197.502 549.429 190.032 545.266C182.694 541.009 175.902 536.356 169.718 531.315C163.782 526.1 158.505 520.478 153.93 514.48C149.666 508.274 146.138 501.714 143.335 494.849C140.866 487.799 139.114 480.479 138.078 472.96C137.331 465.282 137.255 457.446 137.805 449.52C138.565 441.468 139.887 433.346 141.712 425.193C143.62 416.923 145.939 408.626 148.619 400.322C151.249 391.874 154.134 383.38 157.212 374.871C160.119 366.179 163.156 357.436 166.279 348.653C169.183 339.678 172.145 330.663 175.177 321.664C178.017 312.517 180.975 303.438 184.076 294.498C187.121 285.543 190.404 276.816 193.994 268.419C197.698 260.175 201.81 252.357 206.385 245.024C211.191 237.968 216.506 231.448 222.351 225.501C228.421 219.81 234.972 214.639 241.965 209.96C249.053 205.383 256.28 201.265 263.569 197.524C270.743 193.672 277.871 190.08 284.871 186.703C291.647 183.084 298.274 179.643 304.724 176.393C310.957 172.909 317.06 169.668 323.074 166.727C328.972 163.647 334.863 160.971 340.772 158.727C346.73 156.52 352.78 154.84 358.965 153.718C365.315 152.729 371.826 152.34 378.512 152.539C385.412 152.908 392.481 153.843 399.692 155.314C407.118 156.899 414.667 158.957 422.286 161.441C430.093 163.968 437.959 166.837 445.827 170.017C453.852 173.132 461.883 176.503 469.862 180.083C477.988 183.542 486.079 187.184 494.086 190.985C502.226 194.636 510.31 198.447 518.303 202.41C526.416 206.223 534.443 210.223 542.351 214.402C550.347 218.472 558.215 222.77 565.924 227.31C573.686 231.788 581.238 236.556 588.546 241.632" stroke="url(#paint14_linear_4_596)" stroke-width="2.5" stroke-linecap="round" stroke-dasharray="21 2"/>
<path opacity="0.44" d="M581.664 261.188C588.158 266.217 594.152 271.361 599.631 276.604C605.04 281.905 609.892 287.314 614.174 292.817C618.322 298.379 621.863 304.037 624.789 309.75C627.559 315.525 629.691 321.359 631.204 327.211C632.547 333.125 633.276 339.064 633.422 345.017C633.431 351.057 632.91 357.145 631.904 363.256C630.851 369.548 629.405 375.943 627.633 382.477C625.947 389.29 624.068 396.339 622.049 403.66C620.266 411.393 618.456 419.487 616.688 427.947C615.23 436.877 613.833 446.197 612.517 455.852C611.458 465.866 610.377 476.105 609.223 486.429C608.093 496.812 606.68 507.026 604.855 516.88C602.718 526.356 599.922 535.17 596.367 543.158C592.201 550.418 587.138 556.668 581.143 561.847C574.525 566.268 567.05 569.712 558.843 572.281C550.338 574.487 541.411 576.198 532.278 577.626C523.393 579.354 514.872 581.211 506.892 583.348C499.553 586.264 492.883 589.615 486.884 593.372C481.553 597.927 476.76 602.725 472.42 607.603C468.445 612.906 464.643 617.95 460.897 622.573C455.141 629.018 441.905 637.201 434.13 638.548C428.406 638.595 422.326 637.705 415.961 635.949C409.231 633.781 402.299 630.912 395.24 627.447C387.957 623.805 380.631 619.732 373.342 615.343C365.914 611.004 358.567 606.482 351.316 601.855C343.975 597.418 336.728 592.969 329.594 588.531C322.327 584.357 315.133 580.24 307.991 576.171C300.685 572.391 293.382 568.661 286.105 564.963C278.625 561.521 271.131 558.078 263.639 554.607C255.965 551.339 248.298 547.986 240.693 544.518C232.955 541.172 225.334 537.639 217.884 533.888C210.419 530.149 203.385 526.211 196.826 522.064C190.367 517.833 184.46 513.344 179.159 508.602C174.043 503.721 169.571 498.568 165.756 493.16C162.198 487.592 159.326 481.771 157.135 475.74C155.209 469.542 153.948 463.146 153.341 456.601C152.956 449.899 153.175 443.051 153.964 436.108C154.903 429.003 156.335 421.803 158.222 414.527C160.16 407.093 162.449 399.564 165.062 391.975C167.611 384.181 170.402 376.303 173.37 368.358C176.202 360.201 179.177 351.965 182.25 343.674C185.17 335.199 188.185 326.697 191.304 318.226C194.32 309.646 197.482 301.165 200.812 292.857C204.147 284.571 207.733 276.558 211.617 268.908C215.627 261.426 220.013 254.386 224.811 247.862C229.811 241.599 235.262 235.884 241.148 230.731C247.23 225.831 253.724 221.446 260.582 217.552C267.516 213.751 274.549 210.4 281.607 207.442C288.578 204.362 295.486 201.552 302.275 198.959C308.86 196.118 315.299 193.462 321.559 190.967C327.617 188.21 333.527 185.666 339.315 183.351C344.971 180.861 350.559 178.697 356.115 176.872C364.456 174.309 381.559 171.582 390.449 171.558C396.596 171.837 402.876 172.639 409.279 173.937C415.889 175.362 422.619 177.245 429.428 179.556C436.443 181.929 443.544 184.673 450.669 187.746C457.992 190.824 465.332 194.174 472.663 197.764C480.163 201.293 487.636 205.025 495.057 208.929C502.621 212.755 510.127 216.732 517.532 220.87C525.061 224.906 532.483 229.094 539.754 233.446C547.125 237.715 554.33 242.16 561.318 246.783C568.36 251.375 575.154 256.171 581.658 261.18" stroke="url(#paint15_linear_4_596)" stroke-width="2.5" stroke-linecap="round" stroke-dasharray="8 2"/>
<path opacity="0.47" d="M571.675 277.295C577.368 282.154 582.578 287.081 587.298 292.031C591.953 297.028 596.085 302.072 599.681 307.161C604.644 314.89 611.654 330.643 613.703 338.652C615.063 346.854 615.254 363.776 614.269 372.597C613.498 378.739 612.412 385.061 611.079 391.587C609.842 398.414 608.433 405.516 606.915 412.907C605.561 420.661 604.14 428.748 602.686 437.145C601.406 445.884 600.079 454.88 598.705 464.084C597.422 473.481 595.989 482.926 594.353 492.296C592.622 501.587 590.531 510.571 588.004 519.093C585.149 527.198 581.708 534.617 577.586 541.22C572.993 547.177 567.67 552.217 561.617 556.306C555.102 559.778 547.947 562.405 540.244 564.28C532.341 565.88 524.114 567.036 515.729 567.924C507.544 569.086 499.652 570.295 492.174 571.697C485.193 573.764 478.731 576.17 472.812 578.899C467.418 582.346 462.504 586.012 458.007 589.808C451.893 596.106 440.608 607.618 434.912 612.077C428.796 615.469 414.944 617.667 407.162 616.444C401.576 615.009 395.769 612.88 389.803 610.125C383.577 607.15 377.229 603.683 370.82 599.828C364.205 595.912 357.561 591.733 350.933 587.357C344.122 583.052 337.341 578.651 330.604 574.193C323.705 569.903 316.828 565.609 310.013 561.332C303.009 557.254 296.05 553.205 289.129 549.19C282.03 545.356 274.97 541.541 267.982 537.724C260.843 534.054 253.773 530.346 246.835 526.579C239.798 522.897 232.922 519.097 226.274 515.168C219.604 511.243 213.393 507.219 207.65 503.088C201.987 498.899 196.865 494.552 192.295 490.062C187.879 485.46 184.068 480.689 180.863 475.762C176.651 468.078 171.598 451.717 170.7 443.079C170.456 437.107 170.755 431.013 171.543 424.809C172.446 418.423 173.788 411.927 175.512 405.327C177.275 398.524 179.369 391.617 181.745 384.603C184.075 377.375 186.638 370.04 189.385 362.619C192.057 354.993 194.878 347.284 197.834 339.538C200.706 331.643 203.716 323.734 206.865 315.897C209.976 307.99 213.272 300.219 216.765 292.651C220.298 285.153 224.092 277.947 228.172 271.115C232.378 264.475 236.937 258.284 241.846 252.591C246.936 247.163 252.409 242.261 258.24 237.901C264.242 233.776 270.583 230.134 277.219 226.982C283.92 223.919 290.69 221.289 297.46 219.016C304.171 216.663 310.801 214.555 317.318 212.666C323.69 210.56 329.902 208.608 335.947 206.802C344.686 203.801 361.252 198.4 369.196 196.177C377.038 194.101 392.793 191.816 400.829 191.739C406.343 191.904 411.943 192.526 417.622 193.597C423.475 194.752 429.432 196.339 435.458 198.345C441.682 200.418 447.977 202.859 454.311 205.644C460.834 208.45 467.396 211.564 473.968 214.93C480.698 218.291 487.42 221.881 494.107 225.658C500.933 229.407 507.711 233.328 514.385 237.411C521.19 241.436 527.871 245.613 534.407 249.932C541.037 254.209 547.478 258.635 553.697 263.198C559.962 267.739 565.968 272.433 571.669 277.287" stroke="url(#paint16_linear_4_596)" stroke-width="2.5" stroke-linecap="round" stroke-dasharray="16 6"/>
<path opacity="0.7" d="M560.163 291.232C565.101 295.869 569.598 300.54 573.656 305.232C579.431 312.338 588.544 326.772 591.877 334.128C594.61 341.642 597.746 357.169 598.251 365.247C598.429 370.837 598.258 376.568 597.782 382.471C597.319 388.579 596.605 394.908 595.677 401.458C594.8 408.272 593.765 415.342 592.588 422.669C591.489 430.268 590.272 438.108 588.947 446.149C587.67 454.396 586.269 462.782 584.703 471.227C583.123 479.704 581.306 488.109 579.209 496.3C576.972 504.309 574.347 511.936 571.289 519.057C567.942 525.745 564.08 531.779 559.659 537.053C554.873 541.778 549.519 545.691 543.596 548.793C537.354 551.399 530.636 553.3 523.516 554.556C516.263 555.624 508.776 556.308 501.157 556.731C493.681 557.396 486.452 558.056 479.528 558.841C472.97 560.177 466.815 561.752 461.097 563.581C453.313 567.355 440.01 576.289 434.18 580.923C428.658 585.574 417.604 592.66 411.794 594.679C405.555 595.679 391.84 593.92 384.374 591.286C379.107 589.118 373.697 586.448 368.186 583.343C362.461 580.127 356.649 576.573 350.787 572.755C344.726 568.923 338.631 564.909 332.522 560.763C326.246 556.688 319.957 552.538 313.693 548.336C307.262 544.242 300.852 540.145 294.491 536.03C287.977 532.048 281.51 528.048 275.152 524.05C268.656 520.151 262.26 516.224 256.032 512.261C249.724 508.361 243.599 504.391 237.719 500.323C231.827 496.275 226.364 492.189 221.35 488.064C216.398 483.887 211.939 479.644 207.988 475.323C202.508 468.658 194.441 454.669 191.874 447.321C190.051 439.65 189.1 423.492 189.856 415.009C190.584 409.146 191.703 403.152 193.164 397.044C194.66 390.748 196.465 384.324 198.525 377.796C200.582 371.08 202.866 364.254 205.362 357.351C207.808 350.278 210.447 343.153 213.255 336.014C216.034 328.775 218.988 321.566 222.131 314.45C225.269 307.325 228.618 300.362 232.185 293.627C235.83 286.996 239.725 280.681 243.894 274.736C248.187 268.985 252.783 263.669 257.693 258.84C262.754 254.248 268.134 250.152 273.824 246.558C279.641 243.18 285.733 240.266 292.069 237.79C298.474 235.401 304.904 233.423 311.327 231.783C317.705 230.076 324.016 228.615 330.221 227.34C336.313 225.889 342.263 224.588 348.07 223.415C356.49 221.371 372.451 217.671 380.067 216.132C387.519 214.615 402.25 212.905 409.616 212.846C417.136 213.175 432.608 215.802 440.574 218.103C446.056 219.812 451.594 221.866 457.167 224.253C462.906 226.676 468.665 229.408 474.439 232.403C480.367 235.418 486.281 238.668 492.165 242.151C498.178 245.611 504.145 249.278 510.026 253.107C516.014 256.916 521.898 260.898 527.63 265.014C533.446 269.111 539.084 273.358 544.515 277.726C549.991 282.089 555.211 286.592 560.158 291.224" stroke="url(#paint17_linear_4_596)" stroke-width="2.5" stroke-linecap="round" stroke-dasharray="14 18"/>
<path opacity="0.35" d="M548.425 304.722C554.587 311.319 564.989 324.768 569.189 331.63C574.359 340.953 577.959 350.584 580.114 360.522C582.057 370.901 582.703 381.848 582.255 393.422C581.797 405.712 580.448 418.824 578.394 432.642C576.394 447.129 573.655 462.054 570.115 476.902C566.254 491.506 561.172 505.099 554.658 516.88C547.17 527.111 537.911 534.803 526.936 539.685C521.101 541.53 514.912 542.805 508.425 543.549C501.864 544.162 495.125 544.438 488.282 544.487C481.532 544.724 474.974 544.934 468.661 545.212C462.593 545.926 456.833 546.8 451.4 547.869C441.391 551.532 432.543 555.689 424.664 559.876C417.272 564.97 410.135 568.947 403.019 571.328C395.482 573.246 387.511 573.023 379.109 570.747C369.938 567.756 360.287 562.993 350.347 556.879C339.648 550.537 328.737 543.305 317.817 535.55C306.254 527.996 294.77 520.134 283.619 512.108C277.878 508.199 272.241 504.232 266.769 500.229C261.222 496.258 255.869 492.223 250.741 488.119C245.596 484.024 240.848 479.924 236.503 475.805C232.202 471.661 228.332 467.469 224.909 463.256C218.325 454.601 213.616 445.65 210.721 436.415C208.268 426.701 207.549 416.563 208.379 406.037C209.487 394.884 211.911 383.256 215.424 371.279C219.003 358.704 223.495 345.856 228.794 333.036C234.137 320.009 240.336 307.383 247.389 295.642C254.756 284.379 263.164 274.458 272.622 266.264C277.54 262.503 282.721 259.189 288.157 256.33C293.693 253.667 299.458 251.413 305.431 249.571C311.448 247.807 317.488 246.409 323.507 245.321C329.492 244.194 335.43 243.289 341.261 242.582C352.684 240.66 363.639 239.252 374.02 238.271C384.044 236.493 393.676 235.324 402.96 234.902C412.225 234.1 421.421 234.381 430.585 235.827C440.072 237.298 449.697 240.057 459.372 244.026C469.523 248.106 479.745 253.294 489.828 259.419C500.352 265.573 510.651 272.53 520.467 280.159C525.468 283.956 530.324 287.903 534.991 292.002C539.689 296.096 544.178 300.329 548.42 304.713" stroke="url(#paint18_linear_4_596)" stroke-width="2.5" stroke-linecap="round" stroke-dasharray="25 13"/>
<path opacity="0.89" d="M537.121 319.328C544.307 327.575 550.232 336.157 554.902 344.994C559.401 353.982 562.625 363.39 564.673 373.192C566.548 383.346 567.325 394.079 567.13 405.352C566.837 417.107 565.665 429.456 563.68 442.168C561.571 455.152 558.585 468.162 554.67 480.702C550.344 492.741 544.836 503.586 538.055 512.683C530.54 520.436 521.621 526.035 511.408 529.318C500.655 531.54 488.981 532.119 476.782 531.53C464.876 531.566 453.627 531.627 443.295 532.109C433.76 534.204 425.116 536.712 417.275 539.34C409.884 542.961 402.849 545.919 396.013 547.846C388.999 549.705 381.8 550.018 374.389 548.71C366.442 546.941 358.141 543.62 349.616 538.973C340.459 534.056 331.089 528.13 321.682 521.443C311.748 514.791 301.859 507.616 292.251 500.06C282.302 492.647 272.808 484.869 264.069 476.767C255.276 468.691 247.875 460.527 241.933 452.276C236.235 443.839 232.091 435.146 229.474 426.232C227.175 416.941 226.35 407.276 226.853 397.299C227.616 386.851 229.563 376.026 232.551 364.984C235.685 353.558 239.773 342.036 244.709 330.701C249.806 319.354 255.796 308.541 262.636 298.648C269.796 289.277 277.914 281.187 286.936 274.658C296.339 268.89 306.617 264.664 317.62 261.998C328.777 259.624 339.908 258.408 350.789 258.026C361.46 257.167 371.764 256.788 381.585 256.789C391.141 256.062 400.326 255.805 409.142 256.072C417.897 255.869 426.496 256.464 434.919 257.935C443.546 259.273 452.175 261.645 460.735 265.04C469.631 268.439 478.503 272.861 487.203 278.19C496.222 283.531 505.012 289.705 513.383 296.618C521.929 303.502 529.913 311.081 537.117 319.319" stroke="url(#paint19_linear_4_596)" stroke-width="2.5" stroke-linecap="round" stroke-dasharray="22 19"/>
<path opacity="0.88" d="M526.171 335.834C532.191 343.532 537.176 351.661 541.143 360.126C544.976 368.713 547.76 377.746 549.548 387.173C551.186 396.835 551.859 406.964 551.636 417.465C551.267 428.212 550.021 439.248 547.928 450.332C545.618 461.388 542.406 472.148 538.247 482.197C533.714 491.632 528.116 499.886 521.449 506.538C514.278 512.132 506.015 515.961 496.786 517.938C487.239 519.202 476.986 519.158 466.311 518.13C455.832 517.595 445.794 516.952 436.397 516.519C427.509 517.336 419.269 518.436 411.648 519.669C404.37 521.831 397.462 523.633 390.826 524.813C384.139 526.209 377.45 526.533 370.722 525.694C363.658 524.647 356.407 522.346 349.04 518.88C341.23 515.209 333.267 510.518 325.3 504.984C316.927 499.414 308.612 493.147 300.564 486.326C292.241 479.575 284.309 472.304 277.01 464.575C269.683 456.858 263.488 448.973 258.495 440.956C253.671 432.825 250.129 424.443 247.834 415.855C245.788 407.034 244.975 397.895 245.31 388.549C245.877 378.901 247.512 369.036 250.126 359.099C252.926 348.988 256.657 338.954 261.241 329.249C266.037 319.692 271.693 310.743 278.168 302.72C284.921 295.209 292.516 288.864 300.908 283.888C309.562 279.54 318.969 276.535 328.979 274.872C339.105 273.464 349.217 273.09 359.134 273.47C368.927 273.5 378.45 274 387.59 274.854C396.556 275.109 405.205 275.723 413.509 276.73C421.744 277.257 429.778 278.344 437.57 280.073C445.473 281.572 453.267 283.853 460.892 286.951C468.734 289.97 476.457 293.851 483.971 298.555C491.68 303.233 499.153 308.723 506.224 314.966C513.413 321.181 520.12 328.138 526.171 335.834Z" stroke="url(#paint20_linear_4_596)" stroke-width="2.5" stroke-linecap="round" stroke-dasharray="9 21"/>
<path opacity="0.78" d="M514.899 353.902C519.854 361.006 523.946 368.55 527.172 376.437C530.308 384.398 532.545 392.758 533.932 401.414C535.179 410.182 535.569 419.26 535.139 428.475C534.539 437.75 533.111 447.049 530.867 456.134C528.405 465.02 525.083 473.411 520.921 481.005C516.454 488.027 511.086 493.955 504.862 498.519C498.307 502.318 490.937 504.719 482.838 505.7C474.563 506.234 465.732 505.723 456.546 504.404C447.482 503.466 438.683 502.319 430.306 501.226C422.236 501.042 414.595 500.996 407.407 501.034C400.445 501.873 393.787 502.521 387.412 502.795C381.045 503.427 374.766 503.371 368.569 502.514C362.184 501.668 355.759 499.884 349.342 497.155C342.631 494.337 335.881 490.622 329.193 486.081C322.236 481.496 315.369 476.17 308.766 470.201C301.967 464.248 295.517 457.685 289.6 450.556C283.654 443.437 278.645 436.054 274.603 428.504C270.688 420.888 267.806 413.018 265.937 404.986C264.266 396.821 263.623 388.446 263.958 379.962C264.495 371.356 265.976 362.664 268.334 354.058C270.891 345.446 274.305 337.043 278.519 329.082C282.929 321.349 288.144 314.256 294.096 308.03C300.263 302.268 307.174 297.518 314.741 293.948C322.501 290.871 330.883 288.912 339.797 288.113C348.78 287.512 357.769 287.809 366.625 288.788C375.408 289.528 384.014 290.731 392.343 292.265C400.559 293.35 408.535 294.752 416.202 296.453C423.82 297.737 431.227 299.422 438.376 301.578C445.574 303.453 452.604 305.905 459.404 308.978C466.317 311.915 473.056 315.539 479.529 319.859C486.115 324.107 492.435 329.084 498.358 334.771C504.353 340.422 509.912 346.797 514.899 353.902Z" stroke="url(#paint21_linear_4_596)" stroke-width="2.5" stroke-linecap="round" stroke-dasharray="20 3"/>
<path opacity="0.7" d="M502.473 372.088C506.447 378.507 509.661 385.286 512.146 392.315C514.559 399.385 516.203 406.714 517.103 414.203C517.901 421.7 517.934 429.321 517.245 436.887C516.41 444.38 514.822 451.713 512.514 458.668C510.031 465.371 506.806 471.515 502.864 476.887C498.729 481.803 493.864 485.794 488.327 488.697C482.613 491.088 476.263 492.413 469.373 492.675C462.389 492.683 454.967 491.88 447.221 490.41C439.549 489.199 432.014 487.742 424.739 486.211C417.633 485.308 410.778 484.416 404.23 483.541C397.811 483.264 391.627 482.868 385.67 482.242C379.736 481.993 373.929 481.313 368.269 480.124C362.509 479.057 356.81 477.328 351.211 474.926C345.447 472.529 339.738 469.41 334.171 465.585C328.437 461.756 322.861 457.237 317.554 452.091C312.122 446.949 307.026 441.192 302.39 434.858C297.734 428.529 293.848 421.909 290.759 415.093C287.737 408.259 285.56 401.216 284.212 394.051C282.998 386.849 282.635 379.53 283.083 372.209C283.695 364.883 285.109 357.6 287.299 350.523C289.64 343.538 292.743 336.856 296.543 330.652C300.497 324.696 305.154 319.35 310.447 314.781C315.89 310.595 321.948 307.253 328.566 304.896C335.306 302.898 342.569 301.824 350.27 301.706C358.026 301.749 365.812 302.553 373.505 303.944C381.172 305.208 388.721 306.9 396.077 308.939C403.382 310.648 410.505 312.669 417.376 314.939C424.23 316.891 430.88 319.15 437.294 321.747C443.718 324.092 449.95 326.855 455.924 330.065C461.959 333.123 467.767 336.702 473.282 340.822C478.865 344.851 484.149 349.473 489.038 354.686C493.971 359.866 498.486 365.663 502.473 372.088Z" stroke="url(#paint22_linear_4_596)" stroke-width="2.5" stroke-linecap="round" stroke-dasharray="9 9"/>
<path opacity="0.89" d="M488.28 388.263C494.363 399.504 497.818 411.552 498.781 423.629C499.448 435.619 497.51 447.222 493.187 457.304C488.433 466.55 481.246 473.457 471.988 477.114C462.387 479.598 450.931 479.153 438.204 476.071C425.649 473.719 413.366 470.518 401.881 467.12C390.646 465.366 379.916 462.928 369.944 459.43C359.77 456.592 349.96 451.881 340.981 445.142C331.598 438.473 323.055 429.63 316.129 418.791C309.142 407.955 304.791 396.166 303.059 384.177C301.677 372.244 303.057 360.293 306.967 349.268C311.306 338.751 318.129 329.734 327.084 323.224C336.38 317.797 347.678 315.163 360.505 315.734C373.439 316.794 386.495 320.111 399.002 324.839C411.428 328.828 423.384 333.935 434.404 339.945C445.477 345.227 455.808 351.83 464.901 359.824C474.127 367.542 482.146 377.023 488.28 388.263Z" stroke="url(#paint23_linear_4_596)" stroke-width="2.5" stroke-linecap="round" stroke-dasharray="2 2"/>
<path opacity="0.2" d="M472.22 400.308C476.654 409.644 478.903 419.117 479.155 428.141C479.233 437.031 477.245 445.158 473.404 451.77C469.345 457.849 463.452 462.025 456.025 463.834C448.455 465.068 439.482 464.188 429.48 461.305C419.55 458.877 409.647 455.482 400.221 451.647C390.884 448.809 381.87 445.333 373.517 441.183C365.068 437.565 357.088 432.769 349.986 426.696C342.699 420.725 336.287 413.266 331.355 404.426C326.372 395.583 323.521 386.206 322.723 376.936C322.103 367.768 323.629 358.905 327.102 351.066C330.825 343.653 336.468 337.603 343.743 333.58C351.209 330.246 360.216 329.065 370.435 330.333C380.717 331.925 391.145 335.377 401.211 340.042C411.261 344.355 420.977 349.683 429.929 355.742C438.916 361.38 447.23 367.947 454.395 375.366C461.644 382.609 467.764 390.966 472.22 400.308Z" stroke="url(#paint24_linear_4_596)" stroke-width="2.5" stroke-linecap="round" stroke-dasharray="11 8"/>
<path opacity="0.29" d="M454.752 406.767C457.716 413.957 459.029 420.82 458.854 426.978C457.747 435.663 448.423 447.093 440.68 448.946C435.11 449.426 428.528 448.439 421.155 445.975C413.797 443.769 406.377 440.636 399.234 436.972C392.101 433.8 385.171 430.044 378.776 425.812C372.323 421.908 366.319 417.276 361.133 411.978C355.846 406.771 351.378 400.717 348.125 393.949C344.841 387.183 343.179 380.345 343.027 373.838C343.673 364.466 352.385 349.952 360.051 346.025C365.622 344.259 372.305 344.05 379.888 345.599C387.492 347.357 395.226 350.509 402.726 354.64C410.215 358.651 417.489 363.528 424.167 368.967C430.856 374.224 436.998 380.13 442.208 386.47C447.452 392.737 451.768 399.58 454.752 406.767Z" stroke="url(#paint25_linear_4_596)" stroke-width="2.5" stroke-linecap="round" stroke-dasharray="4 26"/>
<path opacity="0.67" d="M436.667 407.38C439.662 420.978 426.928 433.485 413.482 429.998C403.838 426.704 393.857 420.602 385.401 413.375C376.847 406.683 369.68 398.202 365.964 388.958C362.219 379.725 362.807 371.444 366.861 365.901C371.032 360.764 378.632 358.899 388.534 361.641C398.461 364.744 408.758 371.473 417.408 379.763C426.091 387.881 433.191 397.655 436.667 407.38Z" stroke="url(#paint26_linear_4_596)" stroke-width="2.5" stroke-linecap="round" stroke-dasharray="24 3"/>
</g>
<defs>
<linearGradient id="paint0_linear_4_596" x1="411.4" y1="-93.2686" x2="411.4" y2="915.378" gradientUnits="userSpaceOnUse">
<stop stop-color="#1F89DB"/>
<stop offset="1" stop-color="#F42A8B"/>
</linearGradient>
<linearGradient id="paint1_linear_4_596" x1="439.088" y1="-74.5625" x2="381.874" y2="896.939" gradientUnits="userSpaceOnUse">
<stop stop-color="#1F89DB"/>
<stop offset="1" stop-color="#F42A8B"/>
</linearGradient>
<linearGradient id="paint2_linear_4_596" x1="464.577" y1="-54.371" x2="354.509" y2="876.881" gradientUnits="userSpaceOnUse">
<stop stop-color="#1F89DB"/>
<stop offset="1" stop-color="#F42A8B"/>
</linearGradient>
<linearGradient id="paint3_linear_4_596" x1="487.792" y1="-32.8703" x2="329.393" y2="855.379" gradientUnits="userSpaceOnUse">
<stop stop-color="#1F89DB"/>
<stop offset="1" stop-color="#F42A8B"/>
</linearGradient>
<linearGradient id="paint4_linear_4_596" x1="508.677" y1="-10.263" x2="306.605" y2="832.628" gradientUnits="userSpaceOnUse">
<stop stop-color="#1F89DB"/>
<stop offset="1" stop-color="#F42A8B"/>
</linearGradient>
<linearGradient id="paint5_linear_4_596" x1="527.199" y1="13.2412" x2="286.214" y2="808.819" gradientUnits="userSpaceOnUse">
<stop stop-color="#1F89DB"/>
<stop offset="1" stop-color="#F42A8B"/>
</linearGradient>
<linearGradient id="paint6_linear_4_596" x1="543.34" y1="37.4382" x2="268.276" y2="784.147" gradientUnits="userSpaceOnUse">
<stop stop-color="#1F89DB"/>
<stop offset="1" stop-color="#F42A8B"/>
</linearGradient>
<linearGradient id="paint7_linear_4_596" x1="557.038" y1="62.2575" x2="253.113" y2="758.16" gradientUnits="userSpaceOnUse">
<stop stop-color="#1F89DB"/>
<stop offset="1" stop-color="#F42A8B"/>
</linearGradient>
<linearGradient id="paint8_linear_4_596" x1="567.736" y1="86.9419" x2="239.277" y2="732.611" gradientUnits="userSpaceOnUse">
<stop stop-color="#1F89DB"/>
<stop offset="1" stop-color="#F42A8B"/>
</linearGradient>
<linearGradient id="paint9_linear_4_596" x1="576.889" y1="112.12" x2="229.062" y2="706.559" gradientUnits="userSpaceOnUse">
<stop stop-color="#1F89DB"/>
<stop offset="1" stop-color="#F42A8B"/>
</linearGradient>
<linearGradient id="paint10_linear_4_596" x1="583.509" y1="137.178" x2="221.168" y2="680.408" gradientUnits="userSpaceOnUse">
<stop stop-color="#1F89DB"/>
<stop offset="1" stop-color="#F42A8B"/>
</linearGradient>
<linearGradient id="paint11_linear_4_596" x1="587.815" y1="161.978" x2="215.718" y2="654.441" gradientUnits="userSpaceOnUse">
<stop stop-color="#1F89DB"/>
<stop offset="1" stop-color="#F42A8B"/>
</linearGradient>
<linearGradient id="paint12_linear_4_596" x1="589.863" y1="186.339" x2="212.669" y2="628.845" gradientUnits="userSpaceOnUse">
<stop stop-color="#1F89DB"/>
<stop offset="1" stop-color="#F42A8B"/>
</linearGradient>
<linearGradient id="paint13_linear_4_596" x1="589.716" y1="210.081" x2="211.947" y2="603.811" gradientUnits="userSpaceOnUse">
<stop stop-color="#1F89DB"/>
<stop offset="1" stop-color="#F42A8B"/>
</linearGradient>
<linearGradient id="paint14_linear_4_596" x1="587.414" y1="232.993" x2="213.45" y2="579.467" gradientUnits="userSpaceOnUse">
<stop stop-color="#1F89DB"/>
<stop offset="1" stop-color="#F42A8B"/>
</linearGradient>
<linearGradient id="paint15_linear_4_596" x1="583.03" y1="254.877" x2="217.071" y2="555.956" gradientUnits="userSpaceOnUse">
<stop stop-color="#1F89DB"/>
<stop offset="1" stop-color="#F42A8B"/>
</linearGradient>
<linearGradient id="paint16_linear_4_596" x1="576.719" y1="275.619" x2="222.761" y2="533.485" gradientUnits="userSpaceOnUse">
<stop stop-color="#1F89DB"/>
<stop offset="1" stop-color="#F42A8B"/>
</linearGradient>
<linearGradient id="paint17_linear_4_596" x1="568.184" y1="295.435" x2="230.973" y2="511.951" gradientUnits="userSpaceOnUse">
<stop stop-color="#1F89DB"/>
<stop offset="1" stop-color="#F42A8B"/>
</linearGradient>
<linearGradient id="paint18_linear_4_596" x1="558.805" y1="313.151" x2="240.104" y2="492.241" gradientUnits="userSpaceOnUse">
<stop stop-color="#1F89DB"/>
<stop offset="1" stop-color="#F42A8B"/>
</linearGradient>
<linearGradient id="paint19_linear_4_596" x1="547.531" y1="329.841" x2="251.396" y2="474.039" gradientUnits="userSpaceOnUse">
<stop stop-color="#1F89DB"/>
<stop offset="1" stop-color="#F42A8B"/>
</linearGradient>
<linearGradient id="paint20_linear_4_596" x1="534.803" y1="344.793" x2="264.204" y2="457.391" gradientUnits="userSpaceOnUse">
<stop stop-color="#1F89DB"/>
<stop offset="1" stop-color="#F42A8B"/>
</linearGradient>
<linearGradient id="paint21_linear_4_596" x1="520.835" y1="357.991" x2="278.418" y2="442.515" gradientUnits="userSpaceOnUse">
<stop stop-color="#1F89DB"/>
<stop offset="1" stop-color="#F42A8B"/>
</linearGradient>
<linearGradient id="paint22_linear_4_596" x1="505.768" y1="369.337" x2="293.872" y2="429.505" gradientUnits="userSpaceOnUse">
<stop stop-color="#1F89DB"/>
<stop offset="1" stop-color="#F42A8B"/>
</linearGradient>
<linearGradient id="paint23_linear_4_596" x1="489.751" y1="378.919" x2="310.443" y2="418.61" gradientUnits="userSpaceOnUse">
<stop stop-color="#1F89DB"/>
<stop offset="1" stop-color="#F42A8B"/>
</linearGradient>
<linearGradient id="paint24_linear_4_596" x1="472.99" y1="386.28" x2="327.782" y2="409.567" gradientUnits="userSpaceOnUse">
<stop stop-color="#1F89DB"/>
<stop offset="1" stop-color="#F42A8B"/>
</linearGradient>
<linearGradient id="paint25_linear_4_596" x1="455.627" y1="391.607" x2="345.796" y2="402.649" gradientUnits="userSpaceOnUse">
<stop stop-color="#1F89DB"/>
<stop offset="1" stop-color="#F42A8B"/>
</linearGradient>
<linearGradient id="paint26_linear_4_596" x1="436.401" y1="393.935" x2="364.258" y2="396.921" gradientUnits="userSpaceOnUse">
<stop stop-color="#1F89DB"/>
<stop offset="1" stop-color="#F42A8B"/>
</linearGradient>
<clipPath id="clip0_4_596">
<rect width="800" height="800" fill="white"/>
</clipPath>
</defs>
</svg>
